<svg id="a8fe3b96-a641-4641-adab-8cfe1bb98ca0" data-name="Layer 1" xmlns="http://www.w3.org/2000/svg" viewBox="0 0 1920 1080"><defs><style>.b43bdaa4-544c-4d2a-a381-a97afb3dadcf{fill:#eb6b56;}.eed6a0ac-c3f8-4888-ba03-c57f91c61a69{fill:#eec658;}.b9f0eedc-0c19-4163-b109-c7066c426f5b{fill:#d1d5d8;}.bf11191a-0285-4e96-855d-f7c983393b03{fill:#5e6669;}.e294ff2c-1c82-4224-b09e-dcdd9fe03524{fill:#fdfdfd;}.abe65d89-381e-48b2-9ff7-c499ec47977c{fill:#d28556;}.ea4127fa-47bf-409d-bca6-5b99cb5bd355{fill:#6b7378;}.ae321dac-016c-40d4-b699-bdd6b9a96bff{fill:#f6d963;}.efa1a69c-9e8e-406d-9b34-bf334b5a5a4e{fill:#696e68;}.eb092ab2-6a77-491c-9186-360c1f308da9{fill:#6e7577;}.a35605e8-b1c0-48b9-bf0b-b7d5f6c4a096{fill:#506268;}.b96099be-aaee-4293-bdaa-d6281b0866df{fill:#adb9be;}.a4f08788-d219-484e-be98-8daedd8f5a34{fill:#c7cccc;}.b2656b02-dd95-4b5c-ac75-333b66041905{fill:#e8ca63;}.b73b1c51-9733-44e9-9fe0-908f0cfbd796{fill:#888a7d;}.ead6744d-9301-4e86-8e7c-554d24b1a447{fill:#f1e279;}.e33f5ef4-046e-401f-b1af-a8a9d92b2a6c{fill:#f1ecd5;}.b1749b14-74a7-4085-a55b-4f5374c8012f{fill:#f1eddb;}.b5d3d975-4194-4cae-be75-494baea70b86{fill:#f1f2f2;}.a3a39032-6264-4990-b758-e89a5a0a9d75{fill:#eabd6b;}.a501a6b6-dc2d-445c-a211-96aa6839d2e2{fill:#e9a453;}.bee68a22-0659-485c-8a31-0a42608457c9{fill:#e04233;}.a6f15d8f-9e06-44f4-a711-168467d9831b{fill:#f1e27c;}.beabcab6-a9ee-4773-8be1-9901fad9d144{fill:#f1e37a;}.b9bfb0c5-0ffe-416e-b1ad-ef3c6f23e310{fill:#f7f6e8;}.f2aec172-1ab8-4aaa-8ebb-b1dffa8149e6{fill:#f6b223;}.b2806b71-65e9-4674-8705-b21408b1e533{fill:#e15239;}.b5106bc1-bae7-41b7-9b50-e7458aed9530{fill:#f8be1f;}</style></defs><path class="b43bdaa4-544c-4d2a-a381-a97afb3dadcf" d="M1935.53,800.38c0,99.11-1,198.24.71,297.32.43,25-3.4,32-30.71,31.89-268.61-1.37-537.24-.83-805.86-.83H-7.9q.63-164.13,1.28-328.26H98.14c-13.24-32.26-46-16.83-56-39.8l160.49.06,4.08,32.14,6.92,6.45H390.31l7.67-6.78q1.75-15.41,3.52-30.8,38.28-.51,76.55-1l4.08,32.15,6.92,6.45H665.76l7.66-6.78L674,770.3l-.42-7.85,2,.06,1.92-.42L810,760.47q-.49,8-1,16.06c-19,.46-39.84-3.74-55.15,21.07H893.13c-17.72-24.22-38.32-20.82-57.62-21.07l-.25-16.18,158.4.16q2.3,16.31,4.6,32.59c1.66,5.63,5.86,6.8,11,6.25l176.85-.26,6-5.89,3.09-33.05q30.06.18,60.1.36,2.76,16.25,5.51,32.48l8.62,6.36h176.72l6.58-6.32q1.68-16.31,3.37-32.6l126.45-.14q-.6,8.16-1.21,16.32c-18.94.56-39.92-4.18-55,21.22h138.28c-15.92-24.9-36.53-21.28-55.86-21.2L1608,760.3l43.79-1.69,90,2.61q1.61,15.88,3.22,31.79l6.54,6.34H1928.2A25.26,25.26,0,0,0,1935.53,800.38Z"/><path class="eed6a0ac-c3f8-4888-ba03-c57f91c61a69" d="M1741.77,761.22l-90-2.6.87-208,130.69-.1,3.1.71,2.91-1.29c7.84-6.28,7.06-15.68,8.81-24.17,5.25-23.52-13.77-14.34-22.21-14.65-41.13-1.52-82.32-1.37-123.49-1.81V37.63l283.08-.93v588c-52-26-107.11-13.87-161-11.44-19.79.9-29.34,18.16-30.73,38.06-12.61,11.57-9.41,23.15,0,34.73a18.1,18.1,0,0,0,1.12,7.17Q1743.32,727.24,1741.77,761.22Z"/><path class="b9f0eedc-0c19-4163-b109-c7066c426f5b" d="M1935.53,36.7l-283.08.93L-6.92,37c-8.81-32,26.57-47.28,28.44-75.22l40-.24C57.66-9.91,71.28-.33,98.63-1c48-1.18,96.15-1.33,144.18.06,28.74.84,43.71-8.53,39.67-39q.22-3.64.37-7.31h30.6l8,8.74C318-10.19,331.34-.27,358.87-1c46.89-1.23,93.92-2,140.72.32C529.28.8,545-10.11,549.79-38.49l39.69,0C585.67-10.18,598.94-.35,626.3-1c49.09-1.17,98.26-1.26,147.34,0,27.79.73,40-10.21,37.08-37.74q3.85-4.29,7.72-8.59h22.95l8.24,8.67C854.84-10.73,870,.89,899.89-.66,946.7-3.09,993.75-2.18,1040.66-1,1067.93-.33,1082-9.58,1078-38.4l39.25-.13c-3.42,28,9.43,38.21,36.93,37.53q73.59-1.83,147.24,0c27.37.66,40.58-9.21,36.78-37.44l39.69,0C1382.66-10.11,1398.33.81,1428-.68c46.8-2.35,93.84-1.55,140.73-.32,27.53.73,40.9-9.19,37.38-37.57l8-8.74h23l8,8.69C1641.78-10.79,1654.39-.3,1682-1q73.6-1.86,147.28,0c27.37.66,40.61-9.2,36.8-37.44l39.69,0c7.54,14.24,4.09,37.28,29.75,37Z"/><path class="bf11191a-0285-4e96-855d-f7c983393b03" d="M1741.77,761.22q1.56-34,3.11-68l6.73-7.17,183.92-.25V792.74l-7.33,6.61H1751.53L1745,793Q1743.37,777.11,1741.77,761.22Z"/><path class="e294ff2c-1c82-4224-b09e-dcdd9fe03524" d="M21.52-38.21C19.65-10.27-15.73,5.05-6.93,37q.1,236.61.21,473.19l0,15.71q-.21,11.67-.43,23.33L-6.68,561Q-7,663.63-7.3,766.25q.34,17.12.68,34.25-.64,164.13-1.28,328.26c-12.13,2.61-7.49-6.74-7.5-11.39q-.26-576.64,0-1153.28c0-4.65-4.63-14,7.5-11.4C-.65-36,11.61-40.91,21.52-38.21Z"/><path class="abe65d89-381e-48b2-9ff7-c499ec47977c" d="M1743.78,651.35c1.39-19.9,10.94-37.16,30.73-38.06,53.91-2.43,109-14.53,161,11.44v30.55Z"/><path class="ea4127fa-47bf-409d-bca6-5b99cb5bd355" d="M1743.78,651.35l191.75,3.93v30.55l-183.91.25h-7.86C1734.37,674.5,1731.17,662.92,1743.78,651.35Z"/><path class="ae321dac-016c-40d4-b699-bdd6b9a96bff" d="M-6.72,510.2Q-6.82,273.62-6.93,37l1659.38.62V509.34c-77.37.36-154.74,1.43-232.1.74-32.27-.3-39.84,9.56-20.41,36.37l144.42,3.67c9,16.12,25.71,9.89,39.05,13.41q-.4,98.39-.83,196.76l-126.45.14q-1.52-33.52-3-67.08a18.31,18.31,0,0,0,1.23-7.25c11-11.66,14.27-23.26-.28-34.71-1.53-28.68-19.44-40-45.42-40.73-31.78-.89-63.61.2-95.4-.57-30.88-.75-51.51,11.18-58.27,42.64-10.19,11.5-7.86,22.38,1.65,32.9l-1.28,74.87-60.11-.34q-1.34-33.43-2.66-66.89a20.25,20.25,0,0,0,1.13-7.28c11.2-11.45,12.33-23,.26-34.61-3.13-30.4-24.32-39.63-50.39-40.61-31.59-1.19-63.26-.28-94.89-.48-29.17-.18-48.25,12.51-54.6,41.85-11.62,11.8-8.1,22.91,1.55,33.73q-1,37.32-2,74.64l-158.4-.15q-.54-98.24-1.07-196.49c13-4.28,30.18,3,38.77-13.75,40.43-.36,80.87-1,121.3-.94,16.84,0,30.57-2.43,31.21-23.27,4.09-27.82-17.87-14.77-27-14.84-116.87-1-233.77,0-350.64-1.05-32.91-.28-38.87,10.07-20.73,36.43l144.44,3.67c9.1,16,25.54,10.12,39,13L810,760.47l-132.59,1.62q-1.91-34.26-3.82-68.5a26.63,26.63,0,0,0,1.88-7.29c12.1-12.28,15.25-24.1-1.79-34.89,1-30-18.52-39.58-43.44-40.5-35.13-1.3-70.38-1.18-105.53,0-25.24.81-44.05,11-43.61,40.55-16.57,10.82-13.22,22.65-1.78,34.89a22.81,22.81,0,0,0,2.14,7.21L478,760.74l-76.53,1-.24-75.51c11.81-12.71,13.55-24.57-3-34.85,1-30-18.52-39.58-43.44-40.5-35.13-1.3-70.38-1.18-105.52-.06-25.25.81-44,11-43.61,40.56-17.3,11-12.89,22.77-1.22,34.79a27.78,27.78,0,0,0,1.94,7.21l-3.81,67.34-160.48,0s-2.58.44-2.58.43l.33-197.47c14.75-3.28,32.65,2.87,42.76-14.26,39.11-.13,78.22-.51,117.34-.28,16.54.09,30.75-1.71,31-23,4.18-27.23-17.33-15-26.64-15.14C134,509.83,63.63,510.27-6.72,510.2Zm300.63-122-3.57,14.69c3.25,10.87,11.87,11.55,21.23,11.54,63.51,0,127-.57,190.52.49,21.08.35,25.66-9.13,25.53-27.53-.52-74.8-1.19-149.62.38-224.39.55-26.44-10.79-32.35-33.93-32-57.15.82-114.32.06-171.47.42-12.09.07-26.37-3.23-32.39,12.92q.07,7.08.14,14.17c.37,59.35.28,118.7,1.51,178,.24,11.79-7.65,29.33,14.19,32.66l.31,1a15,15,0,0,0-.27,6C298.26,376.36,294.94,381.1,293.91,388.17Zm829.63-114.71c0-36.91-.62-73.83.24-110.71.5-21.7-6.2-33.34-30.21-33-59.91.76-119.85.65-179.77.06-20.65-.2-30.43,7.5-30.31,28.9q.66,114.54,0,229.07c-.12,21.12,9.12,29.44,30,29.23q89.88-.9,179.78.06c23.77.29,31-11,30.47-32.87C1122.91,347.29,1123.54,310.37,1123.54,273.46Zm422.42.37c0-38.07-.74-76.16.28-114.21.58-21.3-8.09-29.7-29-29.53q-89.62.75-179.26,0c-20.27-.17-30.11,6.81-29.9,28.71q1.13,114.2,0,228.41c-.2,21.14,7.89,29.76,29,29.56,59.75-.58,119.52-.75,179.26,0,23.77.32,30.65-10.55,30-32.56C1545.14,347.45,1546,310.63,1546,273.83Z"/><path class="bf11191a-0285-4e96-855d-f7c983393b03" d="M1453.11,693.35q1.52,33.54,3,67.08-1.68,16.3-3.37,32.6l-6.58,6.32H1269.46l-8.62-6.36q-2.74-16.25-5.51-32.48.66-37.44,1.29-74.88L1446,686Q1449.55,689.67,1453.11,693.35Z"/><path class="bf11191a-0285-4e96-855d-f7c983393b03" d="M993.66,760.51q1-37.32,2-74.64l190.3.16,6.64,7.23q1.34,33.47,2.66,66.9l-3.09,33-6,5.89-176.85.26-11-6.25Q996,776.81,993.66,760.51Z"/><path class="bf11191a-0285-4e96-855d-f7c983393b03" d="M401.28,686.26q.11,37.75.23,75.51-1.77,15.4-3.53,30.8l-7.67,6.78H213.6l-6.92-6.45-4.08-32.14q1.91-33.69,3.81-67.35l7.35-7.38Z"/><path class="bf11191a-0285-4e96-855d-f7c983393b03" d="M673.62,693.59q1.92,34.24,3.82,68.5l-1.92.42-2-.06.42,7.85-.54,22.27-7.66,6.78H489.05l-6.92-6.45-4.08-32.15q1.71-33.63,3.44-67.24l7.66-7.43H665.69Z"/><path class="ae321dac-016c-40d4-b699-bdd6b9a96bff" d="M1652.64,550.65l-.87,208q-21.9.82-43.78,1.69l-1.08-196.5c13.06-4.22,30.21,3.1,38.84-13.69l3.47-.07Z"/><path class="bf11191a-0285-4e96-855d-f7c983393b03" d="M810,760.47q.3-98.67.58-197.34l.63-12.77h22l.9,13.51q.54,98.25,1.07,196.49.12,8.08.25,16.18H809Q809.53,768.5,810,760.47Z"/><path class="efa1a69c-9e8e-406d-9b34-bf334b5a5a4e" d="M1606.91,563.8,1608,760.31q.38,8.16.77,16.33l-27.39,0q.6-8.16,1.21-16.32l.84-196.75q.21-6.69.43-13.39h22.4Z"/><path class="eb092ab2-6a77-491c-9186-360c1f308da9" d="M39.54,761.16s2.59-.42,2.58-.44c10,22.95,42.78,7.52,56,39.78H-6.62Q-7,783.37-7.3,766.25l28.88-4.62C27.9,774.4,33.84,772.21,39.54,761.16Z"/><path class="ea4127fa-47bf-409d-bca6-5b99cb5bd355" d="M1581.37,776.61l27.39,0c19.33-.09,39.94-3.71,55.86,21.19H1526.34C1541.45,772.43,1562.43,777.17,1581.37,776.61Z"/><path class="ea4127fa-47bf-409d-bca6-5b99cb5bd355" d="M809,776.53h26.48c19.3.24,39.9-3.16,57.62,21.06H753.88C769.19,772.79,790,777,809,776.53Z"/><path class="a35605e8-b1c0-48b9-bf0b-b7d5f6c4a096" d="M998.26,793.1l11,6.25C1004.12,799.9,999.92,798.73,998.26,793.1Z"/><path class="a35605e8-b1c0-48b9-bf0b-b7d5f6c4a096" d="M674,770.3l-.42-7.85Z"/><path class="a35605e8-b1c0-48b9-bf0b-b7d5f6c4a096" d="M206.68,792.9l6.92,6.45Z"/><path class="a35605e8-b1c0-48b9-bf0b-b7d5f6c4a096" d="M390.31,799.35l7.67-6.78Z"/><path class="a35605e8-b1c0-48b9-bf0b-b7d5f6c4a096" d="M482.13,792.9l6.92,6.45Z"/><path class="a35605e8-b1c0-48b9-bf0b-b7d5f6c4a096" d="M665.76,799.35l7.66-6.78Z"/><path class="a35605e8-b1c0-48b9-bf0b-b7d5f6c4a096" d="M1186.14,799.09l6-5.89Z"/><path class="a35605e8-b1c0-48b9-bf0b-b7d5f6c4a096" d="M1260.84,793l8.62,6.36Z"/><path class="a35605e8-b1c0-48b9-bf0b-b7d5f6c4a096" d="M1446.18,799.35l6.58-6.32Z"/><path class="a35605e8-b1c0-48b9-bf0b-b7d5f6c4a096" d="M1745,793l6.54,6.34Z"/><path class="b96099be-aaee-4293-bdaa-d6281b0866df" d="M1606.25,550.15h-22.39l-39.5,0-144.42-3.67c4.4-25.91,25.07-20.76,41.81-20.79,118.8-.26,237.6,0,356.4.14-1.75,8.49-1,17.89-8.81,24.17a13.62,13.62,0,0,0-6,.58l-130.69.1-3.42-.6-3.47.06Z"/><path class="a4f08788-d219-484e-be98-8daedd8f5a34" d="M1798.15,525.8c-118.8-.11-237.6-.4-356.4-.14-16.74,0-37.41-5.12-41.81,20.79-19.43-26.81-11.86-36.67,20.41-36.37,77.36.69,154.73-.38,232.1-.74,41.17.44,82.36.29,123.49,1.81C1784.38,511.46,1803.4,502.28,1798.15,525.8Z"/><path class="a35605e8-b1c0-48b9-bf0b-b7d5f6c4a096" d="M1743.76,686.08h7.86l-6.74,7.17A18.1,18.1,0,0,1,1743.76,686.08Z"/><path class="ae321dac-016c-40d4-b699-bdd6b9a96bff" d="M1783.33,550.55a13.62,13.62,0,0,1,6-.58l-2.91,1.29Z"/><path class="b2656b02-dd95-4b5c-ac75-333b66041905" d="M21.57,761.64-7.3,766.25Q-7,663.64-6.68,561l27.24,2.84Q21.07,662.75,21.57,761.64Z"/><path class="b96099be-aaee-4293-bdaa-d6281b0866df" d="M231,526.17c-.23,21.26-14.44,23.06-31,23-39.12-.23-78.23.15-117.34.27l-89.75-.17q.21-11.67.43-23.33Z"/><path class="a4f08788-d219-484e-be98-8daedd8f5a34" d="M231,526.17l-237.64-.26,0-15.71c70.35.07,140.71-.37,211,.83C213.62,511.19,235.13,498.94,231,526.17Z"/><path class="b73b1c51-9733-44e9-9fe0-908f0cfbd796" d="M-7.12,549.24l89.75.17c-10.11,17.14-28,11-42.76,14.27l-19.31.18L-6.68,561Q-6.9,555.13-7.12,549.24Z"/><path class="ead6744d-9301-4e86-8e7c-554d24b1a447" d="M290.35,158.46q-.08-7.1-.14-14.18c61.73,9.39,123.9,5.12,185.85,4.95,28.16-.08,38.29,9.57,37.16,37.58-2,49.34-1.32,98.8-1.76,148.2H307c-.43-48-.34-96-1.66-144C305,179,312.55,161.3,290.35,158.46ZM465.43,274.4c.06-36.89-28.74-42.27-54.21-43-26.61-.75-57.32,1.58-60.5,40.17l-4.35,8.71c-2,27.82,10.83,39.37,38.6,36.83,15.15-1.38,30.54-.71,45.79-.22,25.79.83,38.59-9.83,34.24-36.72A9.24,9.24,0,0,0,465.43,274.4Z"/><path class="e33f5ef4-046e-401f-b1af-a8a9d92b2a6c" d="M1123.54,273.46c0,36.91-.63,73.83.23,110.71.52,21.88-6.7,33.16-30.47,32.87q-89.88-1.11-179.78-.06c-20.91.21-30.15-8.11-30-29.23q.63-114.53,0-229.07c-.12-21.4,9.66-29.1,30.31-28.9,59.92.59,119.86.7,179.77-.06,24-.31,30.71,11.33,30.21,33C1122.92,199.63,1123.54,236.55,1123.54,273.46Zm-15.9,2.85c0-30.41-.8-60.85.26-91.23.81-23.52-7-35.15-32.51-34.53-47,1.14-94,1-140.92,0-25.15-.54-33.3,10.78-33,34.45.82,59.55.66,119.12.1,178.68-.21,21.83,7.57,32.85,30.93,32.5q72.35-1.11,144.73,0c23.58.41,31.21-10.65,30.56-32.52C1107,334.63,1107.61,305.46,1107.64,276.31Z"/><path class="b1749b14-74a7-4085-a55b-4f5374c8012f" d="M1546,273.83c0,36.8-.82,73.62.31,110.39.68,22-6.2,32.88-30,32.56-59.74-.79-119.51-.62-179.26,0-21.12.2-29.21-8.42-29-29.56q1.08-114.19,0-228.41c-.21-21.9,9.63-28.88,29.9-28.71q89.63.72,179.26,0c21-.17,29.63,8.23,29,29.53C1545.22,197.67,1546,235.76,1546,273.83ZM1437.59,395.31c107.29,2.32,92.23,7.82,91.81-83.49.2-43.24-.22-86.5.86-129.72.57-22.87-8.76-32-31.58-31.61-48.41.82-96.85.69-145.27.08-21-.26-29.93,8.21-29.44,29.45.83,35.59.13,71.22.13,106.83C1324.08,399.62,1324.09,399.62,1437.59,395.31Z"/><path class="b5d3d975-4194-4cae-be75-494baea70b86" d="M511.46,335c.44-49.4-.23-98.86,1.76-148.2,1.13-28-9-37.66-37.16-37.58-61.95.17-124.12,4.44-185.85-4.95,6-16.14,20.3-12.84,32.39-12.91,57.15-.36,114.32.4,171.47-.42,23.14-.33,34.48,5.58,33.93,32-1.57,74.77-.9,149.59-.38,224.39.13,18.4-4.45,27.88-25.53,27.53-63.49-1.06-127-.53-190.52-.49-9.36,0-18-.67-21.23-11.54,62.88-9.82,126.24-4.11,189.37-5.77,16.75-.44,35,1.35,32.15-24.58Q511.67,353.76,511.46,335Z"/><path class="b96099be-aaee-4293-bdaa-d6281b0866df" d="M833.29,550.36h-22l-39.68-.24-144.43-3.66c4.44-25.86,25.07-20.78,41.84-20.81,118.83-.21,237.66.11,356.49.26-.64,20.84-14.37,23.31-31.21,23.27-40.43-.1-80.87.58-121.3.94Z"/><path class="abe65d89-381e-48b2-9ff7-c499ec47977c" d="M1255,652.73c6.76-31.46,27.39-43.39,58.27-42.64,31.79.77,63.62-.32,95.4.57,26,.72,43.89,12.05,45.42,40.73Z"/><path class="abe65d89-381e-48b2-9ff7-c499ec47977c" d="M481.13,651.41c-.44-29.53,18.37-39.74,43.61-40.55,35.15-1.13,70.4-1.25,105.53,0,24.92.92,44.4,10.54,43.44,40.5A1903.12,1903.12,0,0,1,481.13,651.41Z"/><path class="abe65d89-381e-48b2-9ff7-c499ec47977c" d="M205.69,651.41c-.43-29.52,18.36-39.75,43.61-40.56,35.14-1.12,70.39-1.24,105.52.06,24.92.92,44.4,10.54,43.44,40.5A1902.92,1902.92,0,0,1,205.69,651.41Z"/><path class="abe65d89-381e-48b2-9ff7-c499ec47977c" d="M994.08,652.14c6.35-29.34,25.43-42,54.6-41.85,31.63.2,63.3-.71,94.89.48,26.07,1,47.26,10.21,50.39,40.61Z"/><path class="a3a39032-6264-4990-b758-e89a5a0a9d75" d="M511.46,335q.19,18.75.4,37.5l-205.5-2.33-.31-1L307,335Z"/><path class="eb092ab2-6a77-491c-9186-360c1f308da9" d="M1255,652.73l199.09-1.34c14.55,11.45,11.24,23.05.28,34.71L1446,686l-189.39-.35C1247.11,675.11,1244.78,664.23,1255,652.73Z"/><path class="eb092ab2-6a77-491c-9186-360c1f308da9" d="M481.13,651.41a1903.12,1903.12,0,0,0,192.58,0c17,10.79,13.89,22.61,1.79,34.89l-9.81-.23H489.16l-9.81.23C467.91,674.06,464.56,662.23,481.13,651.41Z"/><path class="eb092ab2-6a77-491c-9186-360c1f308da9" d="M205.69,651.41a1902.92,1902.92,0,0,0,192.57,0c16.56,10.28,14.82,22.14,3,34.85L213.77,686l-9.3.17C192.8,674.18,188.39,662.42,205.69,651.41Z"/><path class="a4f08788-d219-484e-be98-8daedd8f5a34" d="M1025.47,525.91c-118.83-.15-237.66-.47-356.49-.26-16.77,0-37.4-5-41.84,20.81C609,520.09,615,509.74,647.86,510c116.87,1,233.77.06,350.64,1.05C1007.6,511.14,1029.56,498.09,1025.47,525.91Z"/><path class="ea4127fa-47bf-409d-bca6-5b99cb5bd355" d="M994.08,652.14l199.88-.76C1206,663,1204.9,674.54,1193.7,686l-7.77,0-190.3-.16C986,675.05,982.46,663.94,994.08,652.14Z"/><path class="ead6744d-9301-4e86-8e7c-554d24b1a447" d="M306.36,370.18l205.5,2.33c2.89,25.93-15.4,24.14-32.15,24.58-63.13,1.66-126.49-4-189.37,5.77l3.57-14.69c6.9-1.12,10.13-5.95,12.18-12A15,15,0,0,1,306.36,370.18Z"/><path class="a35605e8-b1c0-48b9-bf0b-b7d5f6c4a096" d="M20.56,563.86l19.31-.18-.33,197.47c-5.7,11.06-11.64,13.25-18,.48Z"/><path class="b5d3d975-4194-4cae-be75-494baea70b86" d="M307,335l-.93,34.13c-21.84-3.32-13.95-20.86-14.19-32.65-1.23-59.33-1.14-118.68-1.51-178,22.2,2.84,14.63,20.56,15,32.58C306.64,239,306.55,287,307,335Z"/><path class="b73b1c51-9733-44e9-9fe0-908f0cfbd796" d="M1544.36,550.12l39.5,0q-.22,6.69-.44,13.39C1570.07,560,1553.36,566.24,1544.36,550.12Z"/><path class="b73b1c51-9733-44e9-9fe0-908f0cfbd796" d="M833.29,550.36l39.67-.24c-8.59,16.77-25.74,9.47-38.77,13.75Z"/><path class="b73b1c51-9733-44e9-9fe0-908f0cfbd796" d="M771.57,550.12l39.68.24q-.33,6.39-.64,12.77C797.11,560.24,780.67,566.17,771.57,550.12Z"/><path class="a35605e8-b1c0-48b9-bf0b-b7d5f6c4a096" d="M1185.93,686l7.77,0a20.25,20.25,0,0,1-1.13,7.28Q1189.25,689.64,1185.93,686Z"/><path class="a35605e8-b1c0-48b9-bf0b-b7d5f6c4a096" d="M1446,686l8.33.12a18.31,18.31,0,0,1-1.23,7.25Q1449.56,689.66,1446,686Z"/><path class="b5d3d975-4194-4cae-be75-494baea70b86" d="M306.09,376.19c-2,6-5.28,10.86-12.18,12C294.94,381.1,298.26,376.36,306.09,376.19Z"/><path class="a35605e8-b1c0-48b9-bf0b-b7d5f6c4a096" d="M204.47,686.2l9.3-.17-7.36,7.38A27.78,27.78,0,0,1,204.47,686.2Z"/><path class="a35605e8-b1c0-48b9-bf0b-b7d5f6c4a096" d="M479.35,686.3l9.81-.23-7.67,7.44A22.81,22.81,0,0,1,479.35,686.3Z"/><path class="a35605e8-b1c0-48b9-bf0b-b7d5f6c4a096" d="M665.69,686.07l9.81.23a26.63,26.63,0,0,1-1.88,7.29Z"/><path class="b73b1c51-9733-44e9-9fe0-908f0cfbd796" d="M1606.25,550.15l39.5,0c-8.63,16.8-25.78,9.48-38.84,13.7Z"/><path class="abe65d89-381e-48b2-9ff7-c499ec47977c" d="M465,280.18c4.35,26.89-8.45,37.55-34.24,36.72-15.25-.49-30.64-1.16-45.79.22-27.77,2.54-40.62-9-38.6-36.84Z"/><path class="a501a6b6-dc2d-445c-a211-96aa6839d2e2" d="M350.72,271.58c3.18-38.59,33.89-40.92,60.5-40.17,25.47.72,54.27,6.1,54.21,43Z"/><path class="bee68a22-0659-485c-8a31-0a42608457c9" d="M350.72,271.58l114.71,2.82a9.24,9.24,0,0,1-.43,5.78l-118.63.1Z"/><path class="a6f15d8f-9e06-44f4-a711-168467d9831b" d="M1107.62,276.31c0,29.15-.66,58.32.2,87.44.65,21.87-7,32.93-30.56,32.52q-72.35-1.26-144.73,0c-23.36.35-31.14-10.67-30.93-32.5.56-59.56.72-119.13-.1-178.68-.33-23.67,7.82-35,33-34.45,47,1,94,1.1,140.92,0,25.53-.62,33.32,11,32.51,34.53C1106.84,215.46,1107.64,245.9,1107.62,276.31Zm-83.18,50.16c-19.5-1-39.45,1.5-57.93-7.41-36.15-15-42.61-11.36-41.29,23.51.38,9.85,1.81,19.66,2.75,29.48l5.9,5.78,13.77-.15c25.8-1.38,52.37,6.4,77.2-6.48,9.23.83,18.73,2.66,25.11-6.87,12.38-.26,15-11.88,21.45-18.79,10.77-11.47,9.69-25.74,4.7-38.63-5.11-13.2-18.55-10.16-29.33-9.7-18.21.78-21.74,13.62-21.74,28.68Zm-66.31-91.56c23.13,2.61,42.73.72,42.26-31.29-.41-28.38-19.3-28.92-39.19-28.91-20.32,0-42.34-3.11-43.16,28.35C917.28,232.11,934.21,237,958.13,234.91Zm97-56.95c-19.71,2.38-33.16,12.75-33.35,33.3-.18,19,12.58,30.28,30.89,31.46,18.86,1.2,31.43-9.71,33-28.55C1087.36,193.62,1075.8,181.7,1055.17,178Z"/><path class="beabcab6-a9ee-4773-8be1-9901fad9d144" d="M1437.59,395.31c-113.5,4.31-113.51,4.31-113.49-108.46,0-35.61.7-71.24-.13-106.83-.49-21.24,8.46-29.71,29.44-29.45,48.42.61,96.86.74,145.27-.08,22.82-.39,32.15,8.74,31.58,31.61-1.08,43.22-.66,86.48-.86,129.72C1492.43,332.67,1464.52,363.46,1437.59,395.31Zm24.78-180c-43.32-31.46-68.65-26-80.43,17.47-16.13,7.64-12.15,23.78-15,36.66-14.11,64.77-6.45,74.88,58.89,83.6,10.27,1.37,17.85,1.47,21.39-9.05,9.54-28.37,30-53.15,28.31-85.21,3.59-10.51,8.66-20.77,10.46-31.58C1490.52,200.25,1479.25,201.54,1462.37,215.33Z"/><path class="a3a39032-6264-4990-b758-e89a5a0a9d75" d="M1437.59,395.31c26.93-31.85,54.84-62.64,91.81-83.49C1529.82,403.13,1544.88,397.63,1437.59,395.31Z"/><path class="a3a39032-6264-4990-b758-e89a5a0a9d75" d="M958.13,234.91c-23.92,2-40.85-2.8-40.09-31.85.82-31.46,22.84-28.33,43.16-28.35,19.89,0,38.78.53,39.19,28.91C1000.86,235.63,981.26,237.52,958.13,234.91Z"/><path class="b9bfb0c5-0ffe-416e-b1ad-ef3c6f23e310" d="M1055.17,178c20.63,3.74,32.19,15.66,30.51,36.21-1.54,18.84-14.11,29.75-33,28.55-18.31-1.18-31.07-12.48-30.89-31.46C1022,190.71,1035.46,180.34,1055.17,178Z"/><path class="bee68a22-0659-485c-8a31-0a42608457c9" d="M1050,364.33c-6.38,9.53-15.88,7.7-25.11,6.87-29.68-21.6-58.6-19.17-77.2,6.48l-13.77.15-5.9-5.78c-.94-9.82-2.37-19.63-2.75-29.48-1.32-34.87,5.14-38.47,41.28-23.52-.58,10.07-20.41,15.76-7.9,28.17,13.72,13.61,58.26-1.07,65.84-20.75l.59-.58C1035.8,337.11,1046.47,348.4,1050,364.33Z"/><path class="f2aec172-1ab8-4aaa-8ebb-b1dffa8149e6" d="M1050,364.33c-3.48-15.93-14.15-27.22-24.92-38.44,0-15.06,3.53-27.9,21.74-28.68,10.78-.46,24.22-3.5,29.33,9.7,5,12.89,6.07,27.16-4.7,38.63C1064.92,352.45,1062.33,364.07,1050,364.33Z"/><path class="abe65d89-381e-48b2-9ff7-c499ec47977c" d="M947.64,377.68c18.6-25.65,47.52-28.08,77.2-6.48C1000,384.08,973.44,376.3,947.64,377.68Z"/><path class="a501a6b6-dc2d-445c-a211-96aa6839d2e2" d="M1024.44,326.47c-7.58,19.68-52.12,34.36-65.84,20.75-12.51-12.41,7.32-18.1,7.9-28.17C985,328,1004.94,325.49,1024.44,326.47Z"/><path class="abe65d89-381e-48b2-9ff7-c499ec47977c" d="M928,372.05l5.9,5.78Z"/><path class="b2806b71-65e9-4674-8705-b21408b1e533" d="M1475.58,258.8c1.65,32.06-18.77,56.84-28.31,85.21-3.54,10.52-11.12,10.42-21.39,9.05-65.34-8.72-73-18.83-58.89-83.6,2.8-12.88-1.18-29,15-36.66,30.72,68.42,46.7,72.86,86.68,24.06A39.19,39.19,0,0,0,1475.58,258.8Zm-73.89,41.87c-8.6,1-15.71,4.74-14.18,13.76,2.25,13.25,13.57,16.76,25.09,17.2,8.12.31,15.43-4.35,14-13.28C1424.4,305,1412.46,302.88,1401.69,300.67Z"/><path class="b5106bc1-bae7-41b7-9b50-e7458aed9530" d="M1468.63,256.86c-40,48.8-56,44.36-86.68-24.06,11.77-43.43,37.1-48.93,80.42-17.49C1474.44,227.64,1469.83,242.51,1468.63,256.86Z"/><path class="f2aec172-1ab8-4aaa-8ebb-b1dffa8149e6" d="M1468.63,256.86c1.2-14.35,5.81-29.22-6.26-41.55,16.88-13.77,28.15-15.06,23.67,11.91-1.8,10.81-6.87,21.07-10.46,31.58A39.19,39.19,0,0,1,1468.63,256.86Z"/><path class="f2aec172-1ab8-4aaa-8ebb-b1dffa8149e6" d="M1401.69,300.67c10.77,2.21,22.71,4.3,24.89,17.68,1.45,8.93-5.86,13.59-14,13.28-11.52-.44-22.84-3.95-25.09-17.2C1386,305.41,1393.09,301.69,1401.69,300.67Z"/></svg>