<svg id="b8baf0a7-2e96-4ae9-83ab-b320ce1f68af" data-name="Layer 1" xmlns="http://www.w3.org/2000/svg" viewBox="0 0 1920 1080"><defs><style>.a37218db-0f27-417b-b2b3-1c6f4f7364d3{fill:#f5f5f6;}.aaf977aa-3b9c-45be-b459-21455b04c95d{fill:#dbdbdc;}.a87cc2ff-c81c-4715-bf71-34b1953f9bdf{fill:#efeef0;}.b4d7c242-a220-48ba-b783-1b73a22b2c32{fill:#c99f8e;}.a50ccb8b-2b5c-4037-991f-55c8c00af71a{fill:#ece7e9;}.b3826b5e-8814-494e-9b68-3044f2b53b1c{fill:#d5d0d2;}.aee2ae3b-dc55-42ac-836d-680bf01496de{fill:#bc9184;}.bf058e63-72cc-4af7-9df4-9e1aedd92609{fill:#a67d71;}.f3dc6a57-4571-407b-b636-8d61f09e9329{fill:#cec4c7;}.e6a84f00-b3a8-4c82-b3cb-fe22d27387a1{fill:#f2ecee;}.a5070998-98d0-40e9-a97c-76f76fcf5a3a{fill:#ccc7da;}.b4c3d8c6-3ff9-409c-b833-fa8a77caa13d{fill:#a5b2d5;}.a71266ce-7545-423c-a158-f8f9e8bb0d5a{fill:#dbe1ef;}.a1a6e075-9fd9-403c-8894-4030f70481cb{fill:#44597e;}.a81cc3b4-ef3d-4d6f-9f98-eb231118ccfa{fill:#dce7f2;}.e0cca243-4293-40f8-960c-2377ac542392{fill:#1f203c;}.e28396f3-8a42-49ea-9c26-8701d033bc43{fill:#353044;}.f9a87949-df32-46ee-a5ce-446b11a5eead{fill:#5e6125;}.e6bf2840-8254-4f43-8540-c034c449e5fe{fill:#8ed2f2;}.a4a5e38d-660c-4166-a658-9975da1053b2{fill:#f6605a;}.ba5976dd-3511-47ad-9fb8-95635145ad1e{fill:#55637b;}.a6642655-ba43-4204-8369-1064c10af4eb{fill:#dbb9aa;}.e7ee9621-8d81-4ef5-b996-e7395c5b147b{fill:#d4e4f6;}.f4b04994-ac84-4a4a-b1ce-57f62410fc51{fill:#7f7993;}.a9e87986-2162-4234-a4bc-a2384c6287c5{fill:#e5d3c6;}.b72b15f3-a6f2-4ec6-acdc-52f37c52ce66{fill:#55354a;}.a441d7d2-33b6-4555-83ad-17f0e678fa01{fill:#c6a598;}.f15f3873-cdc7-471d-91c6-705691eb5484{fill:#f1e2d9;}.baa0a6c5-e0ef-43e6-a06b-d7ef1ff56fd1{fill:#6b4241;}.f1dcb66c-220e-4d59-aa54-862204bf3e87{fill:#e7f0f2;}</style></defs><path class="a37218db-0f27-417b-b2b3-1c6f4f7364d3" d="M-41.33,916.2V196.52l997.57.17q.12,317.07.22,634.14c-18.1,6.44-36.86,2.47-55.31,3.48q-.12-9.91-.25-19.84.4-19.47.8-39c.34-.32,1-.71.95-.94a12.46,12.46,0,0,0-.92-2.29q-.08-6.56-.14-13.12l2.9-2.81a3.31,3.31,0,0,0,.31-2.33c6.84-1.28,16.69,3.11,20.1-2.62,5.22-8.81,3-20.38,1.27-30.29-1.39-7.78-10-4.13-15.33-4.14q-371.15-.29-742.31-.46c-13.41,0-18.95,2.11-18.79,17.47s3.56,22.46,19.73,19.89c3.7-.58,7.61.2,11.42.35,5.1,19.87.34,40.35,3.74,60.33l-.17,55.86c-1,14.76-7.8,30,3.69,43.72l-5.38,2.79-93-.08c5.3-8,6.37-16.71,6.16-26.12-.43-19.48-.89-39,.16-58.45.71-13.06-2.93-19.6-16.75-17.88,20.44-25.29,25.76-53.09,14.61-84-3.17-8.77-6.4-10.76-13-3.08s-13.61,15-22.3,24.55c-1-10.36-6-16.28,3.28-24.65,14.51-13.13,11.06-40.69-4.15-54.62-15.71,20.53-18.37,37.93-6.13,55.24,8.78,12.44,6,23.6,1.35,37.27-6-5.63-10.77-9.9-15.29-14.45-8.08-8.14-11.08-4.67-13.28,4.8-5,21.43-2,41,11.53,58.67-10.6-.5-13.76,4.69-13.09,14.88,2,30.18-4.22,61,7.31,90.41-4.77-3.32-10.19-2.44-15.49-2.5C-4,916.72-22.67,916.44-41.33,916.2ZM383.16,671.27c5.3-4.64,9.7-9.59,6.37-19.85-10.15,13.58-19.64,6.94-29.75-.22,2.74,10.87,2.74,10.87,14,22.09l-10,1c-9.85,9.39-8.49,23.55,3.18,33,7.92,3.28,16.58,5.36,20.45-4.51C391.64,692.12,395.93,680.19,383.16,671.27ZM567.4,536.88c-5.4-8.39-14.16-9-22.82-9.83,1-2.15,1.95-4.3,2.93-6.46,10-15,27.42-27,19.48-49.12.7-4.17.41-8-3.91-10.19,4.35-18.35,0-27.09-15.31-36.76-30.47-19.21-74.5,11-79.86,38.38-1.88,9.63.92,17.13,5.15,26,7.32,15.39,16.88,31.43,10.06,50.09l-4.26,1.46c-10.48,1.16-12.6,10.44-14.63,17.62a380,380,0,0,0-14,86.49c-2,12.19,3.81,19.31,14.91,22.89,4.65,1.5,9,3.35,12.28,7.16-1.2,6.3-1.94,12.72-3.69,18.86-2.9,10.19-.76,14.93,11,13.91,12.22-1,24.56-.6,36.85-.81l16.3.1,45.68.1,20-.12c8.53,1,9.24-4.23,9.53-11,.75-17.27-1.75-34.22-3.87-51.23-1.78-28.09-5.38-56-13-83.08-2.65-9.46-6-20.28-19.05-21.32Zm101.36,29.35c-7-1.28-6.42,3.62-6.42,8,0,24.95.35,49.91-.17,74.85-.17,8.3,3,10.12,10.42,9.86,16.22-.58,32.47-.57,48.7-.8l3.1,0c3.68,16.79,7.76,33.66-11.47,46.24h52.65c-11.58-3.2-13.1-10.81-12.41-20.29a56,56,0,0,0-.76-13c-1.52-9.13,1.57-12.85,11.26-12.44,14.69.61,29.43-.1,44.15.14,6,.1,8.85-1.43,8.77-8.13-.3-26.15-.19-52.31-.13-78.47,0-4.95-1.94-7-6.91-5.79C762.61,564.85,715.69,565.1,668.76,566.23ZM495.5,242.31c-51.74,0-103.48-.12-155.22.18-5.41,0-15.63-3.75-13.84,7.6,4.27,27.12,1.55,54.29,1.71,81.4.08,14,4,19.37,18.63,19,35.93-.83,71.89-.27,107.84-.27q98,0,196.08,0c9,0,18.15.79,18.08-12.49-.14-26.13.19-52.27-.2-78.4-.18-12.21-5.79-17.64-19.49-17.41C597.91,242.82,546.7,242.31,495.5,242.31Zm-403,274.54h0c0-16.85-.44-33.72.17-50.54.34-9.09-2.39-12.54-11.84-12.31-22.28.52-44.59.37-66.87-.06-6.63-.12-9.94.81-9.87,8.53.33,35.32.27,70.65.1,106,0,7,2.75,9.57,9.65,9.5,22.83-.23,45.67-.28,68.5,0,7.8.1,10.46-2.82,10.25-10.58C92.22,550.55,92.54,533.7,92.54,516.85Z"/><path class="aaf977aa-3b9c-45be-b459-21455b04c95d" d="M1961.39,196.52V834.41l-42.39-.14-.24-84.82q0-14.78,0-29.56c1.34-9.83-2.65-13.83-12.81-13.29-12,.63-24,0-36,0-.1-13.07-.72-26.15-.13-39.18.45-10.1-3.49-13.16-13.29-13.11q-89.86.5-179.73,0c-9.75-.05-13.79,2.92-13.32,13.09.61,13,0,26.12-.16,39.18-12.51,0-25,.32-37.53,0-7.09-.16-11.74,1.67-11.64,9.69-7.65,1.2-15.19,2.11-18.29-7.62-.66-8.4-6.66-8.38-12.88-8.34-12.37.07-24.75,0-37.13-.05,1.7-12.07,10.84-25.89-7.8-33.18,4.3-5.48,11.83-9.69,6.71-21.91-9.87,19-18.49,6.2-27.35.09-6.15,14.16,9.91,14.14,12,22.31l-13.81.6c-4.24,10.7-3.19,21.2,1.23,31.56-12.13,3.21-25.74-4.3-37,5.08-2.17,8.38-5.92,14.58-16.22,11.75l-1.17-6.26c.38-9.39,7.12-22.05-11.06-22.06-31.45,0-62.91.17-94.36,0-6.5,0-10.5,1.72-10.64,8.78l.84,6.29-1.78,3.88c-15-5-30.08-.45-45.13-.35a14.6,14.6,0,0,1-2.9-.77c.17-11.9-1.88-23.91,1.42-35.65s-1.48-16.22-13-16.11c-19.57.21-39.15.44-58.71,0-40.67-1-81.43,2.71-122-2.09-9.39-1.12-11,4.68-11,12q-.12,19.56-.2,39.12c-10.88.08-21.81.91-32.61,0-12.81-1-18.42,3.5-16.2,16.49v26.28c-.48,4.45,1.26,9.42-3.05,13-2-3.94-3.41-8.72-9.57-6.14-5.68-4.59-3.71-11-3.71-16.75q-.15-260.36-.12-520.73c0-6.54-.34-13.1,3.31-19ZM1675,509.31v-.05q72.78,0,145.55,0c7.75,0,14.42,1.39,14.31-11.23q-1-116.88-.14-233.78c.09-12.7-4.19-15.33-16-15.28q-143.1.68-286.21,0c-13.73-.09-16.1,4.75-16,16.94q.69,114.44,0,228.88c-.07,11.34,2.91,15,14.57,14.82C1579.08,509,1627.06,509.31,1675,509.31Zm-392.39-.24v.18c46.35,0,92.69-.32,139,.23,11.86.14,16-3,15.91-15.57-.57-76.84-.42-153.69-.08-230.54,0-10.23-2.31-14.37-13.54-14.33q-140.65.6-281.33,0c-10.06,0-13.17,2.92-13.13,12.91q.43,116.91-.11,233.81c-.06,11,3.68,13.67,14.23,13.54C1190,508.76,1236.3,509.07,1282.64,509.07Z"/><path class="a87cc2ff-c81c-4715-bf71-34b1953f9bdf" d="M-41.33,75.48c0-25.62.33-51.26-.22-76.87-.15-7,1.36-9.64,8.41-8.25,2.1.42,4.35.07,6.54.07q986.63,0,1973.27-.31c12.27,0,15.65,2.69,15,15.05-1.13,23.38-.33,46.87-.33,70.31l-929.48,0c-4.32-4.8-10.07-2.76-15.29-3.13-21.11-1.5-42,1.58-63,3.17Z"/><path class="b4d7c242-a220-48ba-b783-1b73a22b2c32" d="M1961.39,975.08c0,35.44-.25,70.88.22,106.31.09,7-1.36,9.64-8.41,8.25-2.1-.42-4.35-.07-6.53-.07q-986.64,0-1973.27.31c-12.27,0-16.07-2.67-15-15.05,1.23-14.62.29-29.42.29-44.14,23.63,6.92,48.24,7.35,72.4,9.26,57.82,4.57,115.79,7.76,173.76,9.93,48.88,1.83,97.81,1.13,146.75,2.94,70.64,2.62,141.42.77,212.09-2.53,28.2-1.31,56.49-1.64,84.64-2.34,69-1.73,137.61-6.42,206-14.59,16-1.91,35.41,1.78,47-15.51l.6-3.4c.35-.35,1-.76,1-1a13.81,13.81,0,0,0-1-2.46l-.78-14q.48-11,.94-22Z"/><path class="a50ccb8b-2b5c-4037-991f-55c8c00af71a" d="M-41.33,75.48l995,.09c4.43,40.3,3.25,80.71,2.59,121.12l-997.57-.17Z"/><path class="b3826b5e-8814-494e-9b68-3044f2b53b1c" d="M1031.91,75.53l929.48,0v121H1032a23,23,0,0,1-3.06-17.28c3.4-13.89,2.07-28,3.29-41.95C1034.06,116.63,1026.12,96.12,1031.91,75.53Z"/><path class="aee2ae3b-dc55-42ac-836d-680bf01496de" d="M1961.39,975.08,902,975q-.07-24.5-.13-49c.32-.32.94-.72.89-1a13.06,13.06,0,0,0-1-2.22c0-1.84,0-3.67-.05-5.51q27.39-.72,54.81-1.41l4,1.08c9,7.18,18.57,7.89,28.74,2.76l16.24.38c12.72,2,25.49,5.84,38.16,5.54,61.51-1.45,122.86,3.72,184.32,3.68q144.95-.09,289.9,0c112.67.13,225.34.62,338-3.64,16.64-.63,33.19-3.85,49.86-1,4.26.72,6.08-.82,6.7-4.69l6.28-1.05c13.59,8.35,28.54,1.49,42.67,3.82Z"/><path class="bf058e63-72cc-4af7-9df4-9e1aedd92609" d="M901.26,1017.85c-11.55,17.29-31,13.6-47,15.51-68.38,8.17-137,12.86-206,14.59-28.15.7-56.44,1-84.64,2.34-70.67,3.3-141.45,5.15-212.09,2.53-48.94-1.81-97.87-1.11-146.75-2.94-58-2.17-115.94-5.36-173.76-9.93-24.16-1.91-48.77-2.34-72.4-9.26v-22.9c4.2-1,8.34-2.48,12.6-3,70.27-8.47,140.73-14,211.58-13.21l1.61,5.22c-1.13,21.45-1.13,21.46,20.26,21.46q286.15,0,572.29,0C818.43,1018.24,859.84,1018,901.26,1017.85Z"/><path class="aee2ae3b-dc55-42ac-836d-680bf01496de" d="M-41.33,916.2c18.66.24,37.33.52,56,.71,5.3.06,10.72-.82,15.49,2.49-3,6.05,1.39,6.55,5.33,6.59,15.81.13,31.62,0,47.42,0,3.8,0,6.16-1.71,6.63-5.62l.25-3.49,93,.08q-.54,34-1.11,67.92c-8.2-8.39-18.49-9.87-29.67-9.84-64.44.18-128.89.08-193.33.08Z"/><path class="b4d7c242-a220-48ba-b783-1b73a22b2c32" d="M-41.33,975.08c64.44,0,128.89.1,193.33-.08,11.18,0,21.47,1.45,29.67,9.84a5.28,5.28,0,0,1,1.18,6.75c-70.85-.78-141.31,4.74-211.58,13.21-4.26.51-8.4,2-12.6,3Z"/><path class="f3dc6a57-4571-407b-b636-8d61f09e9329" d="M1919,834.27l42.39.14V916.2l-42.21-.16-1-38,.45-27.09Z"/><path class="bf058e63-72cc-4af7-9df4-9e1aedd92609" d="M1919.18,916l42.21.16v6.54c-14.13-2.33-29.08,4.53-42.67-3.81A4.11,4.11,0,0,1,1919.18,916Z"/><path class="e6a84f00-b3a8-4c82-b3cb-fe22d27387a1" d="M182.85,991.59a5.28,5.28,0,0,0-1.18-6.75q.56-34,1.11-67.92l5.37-2.79c-11.49-13.71-4.65-29-3.69-43.72H901.1q.35,23.43.68,46.86c0,1.84,0,3.67.05,5.51a4.31,4.31,0,0,0,.07,3.18q.06,24.49.13,49l-.93,22-716.64-.17Z"/><path class="a5070998-98d0-40e9-a97c-76f76fcf5a3a" d="M1031.91,75.53c-5.79,20.59,2.15,41.1.35,61.77-1.22,13.95.11,28.06-3.29,41.95a23,23,0,0,0,3.06,17.28c-3.65,5.88-3.31,12.44-3.31,19q0,260.37.12,520.73c0,5.73-2,12.16,3.71,16.74-5.27,5.86-9.2,13.19-17.49,16.56-3.46-7.1.47-12,3.17-17.17,5.74-10.91,5.08-21.93.79-33-1.15-3-2.25-6.68-5.81-7.09-3.82-.43-5.18,3.23-6.7,6.09-6.56,12.34-7.72,24.91-.35,37.18,5.73,9.54,4.42,19,2.72,31.27-4.31-3.87-6.6-6-8.92-8-3.52-3.1-6.64-9.11-11.69-6.55-2.8,1.42-3.81,7.45-4.58,11.6-2.93,15.81,1.75,30,9.95,43.36l-10.53,1.06c-7.36,8.26-17.2,5.84-26.41,6.16l-.24-3.56q-.11-317.07-.22-634.14c.66-40.41,1.84-80.82-2.59-121.12,21-1.59,41.86-4.67,63-3.17C1021.84,72.77,1027.59,70.73,1031.91,75.53Z"/><path class="b4c3d8c6-3ff9-409c-b833-fa8a77caa13d" d="M904.8,754a3.31,3.31,0,0,1-.31,2.33l-2.9,2.81q.07,6.55.14,13.12a5.55,5.55,0,0,0,0,3.23q-.39,19.49-.8,39l-716.27.08c-3.4-20,1.36-40.46-3.74-60.34,5.41-.29,10.82-.83,16.24-.83q344.07-.06,688.14,0C891.78,753.37,898.29,753.79,904.8,754Z"/><path class="a71266ce-7545-423c-a158-f8f9e8bb0d5a" d="M184.63,814.55l716.27-.08q.14,9.93.25,19.85,0,18,0,36.09H184.46Q184.55,842.48,184.63,814.55Z"/><path class="a1a6e075-9fd9-403c-8894-4030f70481cb" d="M904.8,754c-6.51-.23-13-.65-19.53-.65q-344.07,0-688.14,0c-5.42,0-10.83.54-16.24.83-3.81-.14-7.72-.92-11.42-.34-16.17,2.57-19.57-4.57-19.73-19.89s5.38-17.49,18.79-17.47q371.16.56,742.31.46c5.3,0,13.94-3.64,15.33,4.14,1.76,9.91,4,21.48-1.27,30.29C921.49,757.13,911.64,752.74,904.8,754Z"/><path class="a81cc3b4-ef3d-4d6f-9f98-eb231118ccfa" d="M495.5,242.31c51.2,0,102.41.51,153.59-.34,13.7-.23,19.31,5.2,19.49,17.41.39,26.13.06,52.27.2,78.4.07,13.28-9.09,12.49-18.08,12.49q-98-.06-196.08,0c-35.95,0-71.91-.56-107.84.27-14.59.34-18.55-5.06-18.63-19-.16-27.11,2.56-54.28-1.71-81.4-1.79-11.35,8.43-7.57,13.84-7.6C392,242.19,443.76,242.31,495.5,242.31Zm16.25,45.4,3.43-1c7.73,12.37,15.61,24.64,23.1,37.15,3.11,5.17,6.75,8.36,13.09,7.15,7.32-1.39,5.18-7.26,5.25-11.7.24-16.29.2-32.59.11-48.88,0-4.6,1.58-10.58-6.07-10.83s-6.7,5.46-6.72,10.29c-.05,11.64,0,23.28,0,34.92-11.18-12.27-19.47-25.35-27.56-38.55-3.16-5.15-7.26-8.41-13.38-6.59-5.7,1.69-4.07,7-4.11,11.08-.17,17.38,0,34.76-.07,52.15,0,5,1.32,8.43,7.28,8.15,5.43-.26,5.67-3.94,5.67-7.92Q511.77,305.42,511.75,287.71Zm-144,7.08c0,8.71-.06,17.43,0,26.14,0,3.18-.68,6.69,2.24,9.11,7.29,6,41.47-.76,46.93-8.83,10.07-14.89-13.26-29.56-.09-44.63,1.07-1.22-1.14-6.27-2.93-8.75a18.07,18.07,0,0,0-7.61-5.84c-11.52-4.57-24.66-5.71-35.08-1.24-8,3.41-2.53,15.86-3.45,24.24A86.55,86.55,0,0,0,367.73,294.79Zm215.91-5.35c0-9.08.07-16.69,0-24.3,0-4-2.28-5.79-6.24-5.67-3.64.11-6.54,1.21-6.55,5.43q-.06,30.21.07,60.43c0,3.95,2.24,5.77,6.16,5.83,4.88.08,6.76-2.42,6.64-7.06-.1-3.81-.09-7.63.14-11.43.25-4.1,2.29-7.63,6-9.07,5.14-2,5.85,3.2,7.87,6,3.5,4.86,7.19,9.62,10.27,14.74,4.36,7.25,9.85,8.78,18.29,4.7-6.27-9.16-11.46-18.11-18-25.95-6.87-8.23-6.71-14.54.71-22.41,5.58-5.92,12.55-11.38,15.49-21.27C601.83,258,599.53,280.84,583.64,289.44ZM432.45,331.11c3.39-.13,5.62-1.25,7.83-4.47,11.53-16.82,24.75-17,35.35-.36,3,4.78,6.85,5.93,10.81,4.27,5.22-2.19,1.63-6.42.43-9.67-6.79-18.34-13.82-36.6-20.49-55-1.49-4.11-3.45-6.5-8-6.42-4.43.08-6.87,2.23-8.36,6.3q-10.68,29.06-21.65,58C426.62,328.26,426.58,331.19,432.45,331.11Z"/><path class="e0cca243-4293-40f8-960c-2377ac542392" d="M809.54,566.37c5-1.24,6.92.84,6.91,5.79-.06,26.16-.17,52.32.13,78.47.08,6.7-2.79,8.23-8.77,8.13-14.72-.24-29.46.47-44.15-.14-9.69-.41-12.78,3.31-11.26,12.44a56,56,0,0,1,.76,13c-.69,9.48.83,17.09,12.41,20.29H712.92c19.23-12.58,15.15-29.45,11.47-46.24-.27-8.29,8-21.9-10.21-19.74-13.8,1.63-17-6.24-18.41-16.48a127.39,127.39,0,0,1-.53-22.78c.42-8.87,4.75-13.77,14.57-13.44,14.13.48,28.29.12,42.44.12,31.08,0,30.56,0,31.26,31,.33,14.24-1.86,23.85-19.2,21.41-5.11-.73-10.45.24-11.3,6.5-.92,6.79,5.54,7.67,9.75,8.74,14.39,3.65,28.93-.92,43.47-.22,5.33.26,4-4.6,3.93-8.56C809.72,618.57,809.7,592.46,809.54,566.37Z"/><path class="e28396f3-8a42-49ea-9c26-8701d033bc43" d="M809.54,566.37c.16,26.09.18,52.2.62,78.29.06,4,1.4,8.82-3.93,8.56-14.54-.7-29.08,3.87-43.47.22-4.21-1.07-10.67-2-9.75-8.74.85-6.26,6.19-7.23,11.3-6.5,17.34,2.44,19.53-7.17,19.2-21.41-.7-30.95-.18-31-31.26-31-14.15,0-28.31.36-42.44-.12-9.82-.33-14.15,4.57-14.57,13.44a127.39,127.39,0,0,0,.53,22.78c1.37,10.24,4.61,18.11,18.41,16.48,18.2-2.16,9.94,11.45,10.21,19.74l-3.1,0c-9.7-7.17-20.81-3-31.21-3.41-21.24-.8-21.28-.3-21.31-22.13q0-33.17,0-66.34C715.69,565.1,762.61,564.85,809.54,566.37Z"/><path class="f9a87949-df32-46ee-a5ce-446b11a5eead" d="M36,814.11c-13.54-17.65-16.52-37.23-11.54-58.66,2.2-9.47,5.2-12.94,13.28-4.8C42.21,755.2,47,759.47,53,765.1c4.63-13.67,7.43-24.83-1.35-37.27-12.24-17.31-9.58-34.71,6.13-55.24,15.21,13.93,18.66,41.49,4.15,54.62-9.24,8.37-4.3,14.29-3.28,24.65,8.69-9.53,15.68-16.88,22.3-24.55s9.87-5.69,13,3.08c11.15,30.91,5.83,58.71-14.61,84L35.93,814Z"/><path class="e6bf2840-8254-4f43-8540-c034c449e5fe" d="M35.93,814l43.43.36c13.82-1.72,17.46,4.82,16.75,17.88-1,19.43-.59,39-.16,58.45.21,9.41-.86,18.17-6.16,26.12-.08,1.16-.16,2.32-.25,3.48-7.59-.14-15.18-.39-22.77-.39-24,0-29.47-5.55-29.69-29.5C36.83,865,36.32,839.5,35.93,814Z"/><path class="a4a5e38d-660c-4166-a658-9975da1053b2" d="M483.12,539c6.82-18.66-2.74-34.7-10.06-50.09-4.23-8.89-7-16.39-5.15-26,5.36-27.38,49.39-57.59,79.86-38.38,15.34,9.67,19.66,18.41,15.31,36.76-5.41-.39-8.34-4.63-12-7.75a35.31,35.31,0,0,0-28.66-8.44c-13.44,1.75-29.36,20.35-25.15,29.32,5.25,11.19,10.82,22.26,16.74,33.11,6.79,12.45,6.6,23.43-5.24,32.72-.23,1.39-.46,2.78-.68,4.18-2.56,3.11-2.86,6.83-3.13,10.67-.29,4,1.43,9.61-4.48,10.7-6.31,1.15-7.9-4.68-9.92-8.91C487.81,551.06,485.58,545,483.12,539Z"/><path class="ba5976dd-3511-47ad-9fb8-95635145ad1e" d="M92.54,516.85c0,16.85-.32,33.7.14,50.54.21,7.76-2.45,10.68-10.25,10.58-22.83-.3-45.67-.25-68.5,0-6.9.07-9.69-2.48-9.65-9.5.17-35.33.23-70.66-.1-106-.07-7.72,3.24-8.65,9.87-8.53,22.28.43,44.59.58,66.87.06,9.45-.23,12.18,3.22,11.84,12.31-.61,16.82-.17,33.69-.17,50.54Zm-55-44.49C22.84,469.13,15.57,472.78,17,490c1.61,18.86.53,37.94.62,56.93l.09,5.46C17.3,557,19,559.5,24,559.48q24.48-.12,49,0c4.81,0,7-2.18,6.38-7q0-4.35,0-8.73l-.21-66c-2-11.46-10.48-4.08-15.93-5.51Z"/><path class="aaf977aa-3b9c-45be-b459-21455b04c95d" d="M901.1,870.41q0-18,0-36.09c18.45-1,37.21,2.95,55.31-3.49l.24,3.56q-.06,40.73-.11,81.47-27.4.69-54.81,1.41Q901.44,893.84,901.1,870.41Z"/><path class="a1a6e075-9fd9-403c-8894-4030f70481cb" d="M583.6,706.79l-45.69-.1q-.1-4.43-.22-8.85c21.63-6.66,3-13.56.12-20.37.37-1.18.74-2.36,1.12-3.53.27-.28.81-.59.78-.82a11.45,11.45,0,0,0-.65-2l0-88.64,2.29-3.9c9.8,1.06,19.61,2.09,29.34-.55q.06,7.23.13,14.46a71.69,71.69,0,0,0-.87,31.75C575.18,651.65,579.14,679.27,583.6,706.79Z"/><path class="a6642655-ba43-4204-8369-1064c10af4eb" d="M508.79,540.24c11.84-9.29,12-20.27,5.24-32.72-5.92-10.85-11.49-21.92-16.74-33.11-4.21-9,11.71-27.57,25.15-29.32a35.31,35.31,0,0,1,28.66,8.44c3.64,3.12,6.57,7.36,12,7.75,4.32,2.24,4.61,6,3.92,10.19-12.75,12.15-13.56,30.85-24.19,44.29-2,2.53,2.22,4,4.7,4.83-1,2.16-2,4.31-2.93,6.46-2.41,20.44-10,24.64-26.58,15C515.44,540.57,511.88,540.8,508.79,540.24Zm22.07-42.87c-2.91.61-7.45-1.09-7.83,3.52-.4,4.91,3.88,5.91,7.8,6.15s8.58-1,8.72-5.32C539.72,496.09,534.36,497.81,530.86,497.37Z"/><path class="a1a6e075-9fd9-403c-8894-4030f70481cb" d="M483.12,539c2.46,6,4.69,12,7.46,17.87,2,4.23,3.61,10.06,9.92,8.91,5.91-1.09,4.19-6.67,4.48-10.7.27-3.84.57-7.56,3.13-10.66,5.59,2.68,11.52,4.92,14,11.42q-.29,57.81-.55,115.63c-15.39-2.62-27.22-12.13-39.66-20.47,2-16.26,9.05-31.89,6.16-48.78q-4.57-30.87-9.17-61.76Z"/><path class="e6bf2840-8254-4f43-8540-c034c449e5fe" d="M570.85,592.51q-.06-7.23-.13-14.46a2,2,0,0,1-.25-1.78c6.61-11.25,5.69-23.91,6.8-36.19,13.09,1,16.4,11.86,19.05,21.32,7.58,27.11,11.18,55,13,83.08l-19.49.52c-9.15-2.68-6-11.61-8.77-17.52C575.86,616.4,580.17,602.47,570.85,592.51Z"/><path class="e6bf2840-8254-4f43-8540-c034c449e5fe" d="M478.86,540.47q4.59,30.88,9.17,61.77c-4.73.66-5,4.19-6,8-3,11.61-6.61,23.06-10,34.57l-21.79-.25a380,380,0,0,1,14-86.49C466.26,550.91,468.38,541.63,478.86,540.47Z"/><path class="ba5976dd-3511-47ad-9fb8-95635145ad1e" d="M35.93,814c.39,25.47.9,50.94,1.15,76.4.22,24,5.73,29.52,29.69,29.5,7.59,0,15.18.25,22.77.39-.47,3.92-2.83,5.62-6.63,5.63-15.8,0-31.61.17-47.42,0-3.94,0-8.36-.54-5.33-6.59C18.63,890,24.83,859.18,22.85,829c-.67-10.19,2.49-15.38,13.09-14.88C36,814.11,35.93,814,35.93,814Z"/><path class="a6642655-ba43-4204-8369-1064c10af4eb" d="M450.22,644.58l21.8.25c2.05,4,5.07,6.5,9.85,6.18,12.44,8.34,24.27,17.85,39.66,20.47,6.52-1,12.27.15,16.28,6,2.84,6.81,21.51,13.71-.12,20.37L526,696c-10.42-20.2-28.42-23.23-48.56-21.39-3.27-3.81-7.63-5.66-12.28-7.16C454,663.89,448.19,656.77,450.22,644.58Z"/><path class="a87cc2ff-c81c-4715-bf71-34b1953f9bdf" d="M570.85,592.51c9.32,10,5,23.89,10.17,35,2.75,5.91-.38,14.84,8.77,17.52-.48,21.7,8.32,41.31,13.83,61.67l-20,.12c-4.46-27.52-8.42-55.14-13.62-82.53A71.69,71.69,0,0,1,570.85,592.51Z"/><path class="a1a6e075-9fd9-403c-8894-4030f70481cb" d="M477.41,674.63c20.14-1.84,38.14,1.19,48.56,21.39-4.1,2.44-4.83,6.26-4.35,10.57-12.29.21-24.63-.24-36.85.81-11.81,1-13.95-3.72-11-13.91C475.47,687.35,476.21,680.93,477.41,674.63Z"/><path class="a6642655-ba43-4204-8369-1064c10af4eb" d="M603.62,706.67c-5.51-20.36-14.31-40-13.83-61.67l19.49-.52c2.12,17,4.62,34,3.87,51.23C612.86,702.44,612.15,707.64,603.62,706.67Z"/><path class="ba5976dd-3511-47ad-9fb8-95635145ad1e" d="M577.27,540.08c-1.11,12.28-.19,24.94-6.8,36.19.93-14.59-10.07-8.79-17-10-10-1.69-12.31,4-12.09,12.3l-2.29,3.9L538,552.59c8.24-8.18,20-9.79,29.45-15.71Z"/><path class="e0cca243-4293-40f8-960c-2377ac542392" d="M668.76,566.23q0,33.18,0,66.34c0,21.83.07,21.33,21.31,22.13,10.4.39,21.51-3.76,31.21,3.41-16.23.23-32.48.22-48.7.8-7.39.26-10.59-1.56-10.42-9.86.52-24.94.17-49.9.17-74.85C662.34,569.85,661.72,565,668.76,566.23Z"/><path class="e6bf2840-8254-4f43-8540-c034c449e5fe" d="M363.83,674.27l10-1,9.36-2c12.77,8.92,8.48,20.85,4.3,31.53-3.87,9.87-12.53,7.79-20.44,4.51Q365.43,690.78,363.83,674.27Z"/><path class="e7ee9621-8d81-4ef5-b996-e7395c5b147b" d="M567.4,536.88C558,542.8,546.19,544.41,538,552.6c-5,2.37-1.91,9-6.43,11.92-4.66-1.21-3.5-9-9.44-8.67-2.45-6.5-8.38-8.74-14-11.42.22-1.41.45-2.8.68-4.19,3.09.56,6.65.33,9.21,1.82,16.54,9.63,24.17,5.43,26.58-15C553.24,527.89,562,528.49,567.4,536.88Z"/><path class="a4a5e38d-660c-4166-a658-9975da1053b2" d="M547.51,520.59c-2.48-.84-6.7-2.3-4.7-4.83,10.63-13.44,11.44-32.14,24.19-44.29C574.93,493.56,557.54,505.62,547.51,520.59Z"/><path class="f9a87949-df32-46ee-a5ce-446b11a5eead" d="M383.16,671.27l-9.36,2c-11.28-11.22-11.28-11.22-14-22.09,10.11,7.16,19.6,13.8,29.75.22C392.86,661.68,388.46,666.63,383.16,671.27Z"/><path class="f4b04994-ac84-4a4a-b1ce-57f62410fc51" d="M363.83,674.27q1.6,16.51,3.19,33C355.34,697.82,354,683.66,363.83,674.27Z"/><path class="e0cca243-4293-40f8-960c-2377ac542392" d="M521.62,706.59c-.48-4.31.25-8.13,4.35-10.57l11.72,1.82q.12,4.42.22,8.85Z"/><path class="a50ccb8b-2b5c-4037-991f-55c8c00af71a" d="M901.59,759.16l2.9-2.81Z"/><path class="a50ccb8b-2b5c-4037-991f-55c8c00af71a" d="M901.7,775.51a5.55,5.55,0,0,1,0-3.23,12.46,12.46,0,0,1,.92,2.29C902.7,774.8,902,775.19,901.7,775.51Z"/><path class="a6642655-ba43-4204-8369-1064c10af4eb" d="M1042.12,759.13c4.31-3.56,2.57-8.53,3.05-13l49-.07c0,17.13.69,34.29-.06,51.39-.59,13.45,3.56,16.9,15.34,9.89,4.86,6.45,11.92,4.17,18.15,4.2,44.6.16,89.21.45,133.81-.25,7.8-.12,15.73,5.31,23.44-.15,11.38,5,15.84,1.14,15.51-11-.49-17.92-.18-35.87-.2-53.81,7.67-1.77,16.39,3,23.25-3.75l22.79.26c6.58,29.26,1.71,58.92,3.12,88.36-5.55,5.77-2.12,12.94-3,19.43q-89.85.06-179.7.11c-34.85,0-69.82,1.62-104.5-.82-15.63-1.1-18.06,3.46-17,16.08.34,3.79.23,7.62.33,11.42q-.23,19.41-.47,38.82l-6.45-1.87v-1.22c7.08-23.78,1.74-48.18,3.67-72.2.88-10.95-4.21-14.49-14-14.14C1046.85,807.11,1048.14,783.87,1042.12,759.13Z"/><path class="a6642655-ba43-4204-8369-1064c10af4eb" d="M1919,834.27q-.2,8.33-.38,16.66l-303.91,0q-.12-9.87-.23-19.75l.13-81.69c7-.1,14,0,21-.35,9.25-.52,18.47-4,27.72,0,.08,16.3.74,32.62.05,48.89-.51,12.12,4.19,15.92,15.46,12.85,3.61,4.47,8.71,3.81,13.54,3.81q74.19.06,148.4,0c4.81,0,9.93.75,13.56-3.72,10.34,5.33,16.09,4.37,15.56-9.45-.67-17.39,0-34.83,0-52.25l48.81.21Z"/><path class="ba5976dd-3511-47ad-9fb8-95635145ad1e" d="M1675,509.31c-48,0-96-.36-143.92.26-11.66.15-14.64-3.48-14.57-14.82q.69-114.44,0-228.88c-.08-12.19,2.29-17,16-16.94q143.1.93,286.21,0c11.79,0,16.07,2.58,16,15.28q-.81,116.89.14,233.78c.11,12.62-6.56,11.24-14.31,11.23q-72.76,0-145.55,0Zm.13-247.17c-44.12,0-88.25.33-132.36-.23-10.72-.14-13.76,3-13.69,13.7q.67,102.9,0,205.82c-.06,10.09,2.88,12.83,12.9,12.79q134-.56,268,0c9.72,0,13.42-2.68,13.37-12.84q-.51-102.91,0-205.83c.08-11.17-4-13.65-14.29-13.55C1764.49,262.4,1719.82,262.15,1675.16,262.14Z"/><path class="ba5976dd-3511-47ad-9fb8-95635145ad1e" d="M1282.64,509.07c-46.34,0-92.69-.31-139,.24-10.55.13-14.29-2.54-14.23-13.54q.63-116.89.11-233.81c0-10,3.07-12.95,13.13-12.91q140.67.54,281.33,0c11.23,0,13.59,4.1,13.54,14.33-.34,76.85-.49,153.7.08,230.54.09,12.59-4,15.71-15.91,15.57-46.34-.55-92.68-.23-139-.23Zm1-247c-42.48,0-85,.37-127.45-.25-11.48-.16-16.15,1.92-16,14.9.69,67.5.56,135,.16,202.53-.06,10.81,2.1,15.13,14.18,15.05q128.26-.81,256.53-.05c11.91.07,14.23-3.92,14.16-14.87-.46-67.51-.59-135,.08-202.54.13-12.84-4.18-15.17-15.83-15C1367.55,262.55,1325.61,262.15,1283.67,262.1Z"/><path class="a6642655-ba43-4204-8369-1064c10af4eb" d="M1663.38,706.6c.11-13.06.77-26.15.16-39.18-.47-10.17,3.57-13.14,13.32-13.09q89.87.45,179.73,0c9.8,0,13.74,3,13.29,13.11-.59,13,0,26.11.13,39.18l-.35.36c-14.4-2-23.29.12-17,18.42,2.47,7.17.53,15.86.6,23.86-2.26,17.47,4.19,35.59-3.88,52.63l-12.38-.06-.21-13.33.06-101.13c.69-9.16,1.29-17-12.48-16.72-38.48.69-77,.49-115.48.07-10.28-.11-13.93,3.76-12.16,13.51l-.06,104.2q-.11,6.71-.22,13.41l-12.9.12c-.33-17.65-.41-35.31-3.44-52.78.14-7.46-.54-15,.58-22.35,3.07-20.21,3.36-20.16-17-19.84Z"/><path class="a6642655-ba43-4204-8369-1064c10af4eb" d="M1094,703.34q.11-19.56.21-39.12c0-7.32,1.63-13.12,11-12,40.6,4.8,81.36,1.12,122,2.09,19.56.47,39.14.24,58.71,0,11.48-.11,16.22,4.52,13,16.11s-1.25,23.75-1.42,35.66c-6,1.08-17.79-6.63-15.63,7.67,4.46,29.69-4,58.89-1.82,88.38l-12.33-.52q-.18-8.24-.35-16.48,0-50.5-.07-101c1.63-9.68-1.9-13.65-12.22-13.53q-57.77.64-115.53,0c-10.24-.11-13.92,3.75-12.42,13.44q0,50.59-.08,101.19l-.24,16.33c-5.63-.15-11.12.35-16,3.43l-.16-55.7c0-10.09-.76-20.27.29-30.25,1.41-13.36-4.62-17.15-16.55-15.37Z"/><path class="f9a87949-df32-46ee-a5ce-446b11a5eead" d="M1042.12,759.13c6,24.74,4.73,48-13.91,67.66l-32.65,1a1.78,1.78,0,0,0-1.92-.61c-8.2-13.34-12.88-27.55-9.95-43.36.77-4.15,1.78-10.18,4.58-11.6,5.05-2.56,8.17,3.45,11.69,6.55,2.32,2,4.61,4.14,8.92,8,1.7-12.3,3-21.73-2.72-31.27-7.37-12.27-6.21-24.84.35-37.18,1.52-2.86,2.88-6.52,6.7-6.09,3.56.41,4.66,4.08,5.81,7.09,4.29,11.12,5,22.14-.79,33-2.7,5.12-6.63,10.07-3.17,17.17,8.29-3.37,12.22-10.7,17.49-16.56C1038.71,750.41,1040.15,755.19,1042.12,759.13Z"/><path class="f4b04994-ac84-4a4a-b1ce-57f62410fc51" d="M1595.92,708.7c3.1,9.73,10.64,8.82,18.3,7.63,7.81,2.07,16.74-2.59,23.8,3.94-.38,2-.75,4-1.13,6l-315.51.31c-.38-2.23-.75-4.46-1.13-6.7,7.94-6,17.2-1.72,25.71-3.28h117.73c10.3,2.83,14-3.37,16.22-11.76,3,3.68,7,4.9,11.58,4.86Q1543.71,709.17,1595.92,708.7Z"/><path class="aee2ae3b-dc55-42ac-836d-680bf01496de" d="M1280,802.16c-2.21-29.49,6.28-58.69,1.82-88.38-2.16-14.3,9.6-6.59,15.63-7.67a15.29,15.29,0,0,0,2.9.76q-.12,6.4-.25,12.82,0,13.32,0,26.62c0,17.94-.28,35.89.21,53.81.33,12.18-4.13,16.08-15.52,11Q1282.42,806.66,1280,802.16Z"/><path class="f4b04994-ac84-4a4a-b1ce-57f62410fc51" d="M1346.46,697.05c.14-7.06,4.14-8.82,10.64-8.78,31.45.19,62.91,0,94.36,0,18.18,0,11.44,12.67,11.07,22.06l-115.67,0c-.45-1-.9-2.06-1.34-3.1l1.78-3.88h111.55c0-2.16,0-4.31,0-6.47C1421.47,691,1383.94,695.29,1346.46,697.05Z"/><path class="a9e87986-2162-4234-a4bc-a2384c6287c5" d="M1918.76,749.45l-48.81-.2-.25.16c-4.23-9.81-5-19.59.31-29.3l48.79-.22Z"/><path class="a9e87986-2162-4234-a4bc-a2384c6287c5" d="M1094.15,746.08l-49,.07q0-13.14,0-26.28l48.63.31q.32,13.07.62,26.16Z"/><path class="b4c3d8c6-3ff9-409c-b833-fa8a77caa13d" d="M1595.92,708.7q-52.22.49-104.43,1c-4.6,0-8.58-1.18-11.58-4.86,11.29-9.37,24.9-1.86,37-5.06,2.89,1.84,5.6,5.17,9.19,1.09l19.78-.57c12.38,0,24.76.12,37.13.05C1589.26,700.32,1595.26,700.3,1595.92,708.7Z"/><path class="ba5976dd-3511-47ad-9fb8-95635145ad1e" d="M1346.46,697.05c37.48-1.76,75-6,112.34-.18,0,2.16,0,4.31,0,6.47H1347.3Z"/><path class="e6bf2840-8254-4f43-8540-c034c449e5fe" d="M1545.91,700.31l-19.78.56c-9-9.12-2.92-23-10.42-32.65l13.81-.6,8.59-.49C1556.75,674.42,1547.61,688.24,1545.91,700.31Z"/><path class="a6642655-ba43-4204-8369-1064c10af4eb" d="M1093.8,720.18l-48.62-.31c-2.22-13,3.39-17.52,16.2-16.49,10.8.87,21.73,0,32.61,0l.34.35Q1094.06,711.94,1093.8,720.18Z"/><path class="a1a6e075-9fd9-403c-8894-4030f70481cb" d="M1346.86,710.32l115.67,0q.57,3.14,1.16,6.26H1346Z"/><path class="a6642655-ba43-4204-8369-1064c10af4eb" d="M1918.8,719.89q-24.39.11-48.79.21-.18-6.57-.35-13.16l.35-.36c12,.06,24,.65,36,0C1916.15,706.06,1920.14,710.06,1918.8,719.89Z"/><path class="a6642655-ba43-4204-8369-1064c10af4eb" d="M1638,720.28c-7.07-6.54-16-1.88-23.81-3.95-.11-8,4.54-9.86,11.63-9.7,12.5.29,25,0,37.53,0l.34.35q-.23,6.6-.44,13.2Z"/><path class="a6642655-ba43-4204-8369-1064c10af4eb" d="M1346.86,710.32l-.9,6.29c-8.51,1.56-17.77-2.72-25.71,3.28l-20.11-.2q.12-6.41.25-12.82c15-.1,30.13-4.63,45.13.35C1346,708.26,1346.41,709.29,1346.86,710.32Z"/><path class="f9a87949-df32-46ee-a5ce-446b11a5eead" d="M1538.11,667.13l-8.59.49c-2.14-8.17-18.2-8.15-12-22.31,8.86,6.11,17.48,18.91,27.35-.09C1549.94,657.44,1542.41,661.65,1538.11,667.13Z"/><path class="f4b04994-ac84-4a4a-b1ce-57f62410fc51" d="M1515.71,668.22c7.5,9.6,1.43,23.53,10.42,32.65-3.59,4.09-6.3.76-9.19-1.08C1512.52,689.42,1511.47,678.92,1515.71,668.22Z"/><path class="e0cca243-4293-40f8-960c-2377ac542392" d="M184.46,996.81,901.1,997q.38,7,.77,14c0,1.17,0,2.33,0,3.49l-.6,3.4c-41.42.14-82.83.39-124.25.4q-286.14.06-572.29,0C183.33,1018.27,183.33,1018.26,184.46,996.81Z"/><path class="bf058e63-72cc-4af7-9df4-9e1aedd92609" d="M901.86,1014.45c0-1.16,0-2.32,0-3.49a13.81,13.81,0,0,1,1,2.46C902.89,1013.69,902.21,1014.1,901.86,1014.45Z"/><path class="bf058e63-72cc-4af7-9df4-9e1aedd92609" d="M1038.53,914.35l6.45,1.87,19.63,0,264.57-.07,19.84,0,82-.23c1,5.1,4.29,7,9.34,7,25.46-.08,50.93-.17,76.39.09,7.16.07,9.9-2.9,9.18-9.71,5.42,2.89,11.22,3.34,17.27,3.29,23.83-.2,47.66-.15,71.49-.2,6.82,4.06,13.55,4.82,20.08-.6l264.26.33c3.52,4.63,9,2.35,13.44,3.86-.62,3.87-2.44,5.41-6.7,4.69-16.67-2.82-33.22.4-49.86,1-112.61,4.26-225.28,3.77-338,3.64q-144.95-.18-289.9,0c-61.46,0-122.81-5.13-184.32-3.68-12.67.3-25.44-3.58-38.16-5.54C1016.35,917.05,1029,924.4,1038.53,914.35Z"/><path class="b72b15f3-a6f2-4ec6-acdc-52f37c52ce66" d="M1634.74,915.78c-6.53,5.42-13.26,4.66-20.08.6q.36-19.18.71-38.37h302.79l1,38a4.11,4.11,0,0,0-.46,2.89l-6.28,1c-4.41-1.51-9.92.77-13.44-3.86,0-22.55,0-22.55-21.43-22.56-73.54,0-147.09-.16-220.63,0C1629.27,893.59,1634.67,891.34,1634.74,915.78Z"/><path class="f3dc6a57-4571-407b-b636-8d61f09e9329" d="M956.59,915.86q.06-40.74.11-81.47c9.21-.32,19,2.1,26.41-6.16,0,29.44-3.06,59.08,5.56,88l-28.1.74Z"/><path class="f4b04994-ac84-4a4a-b1ce-57f62410fc51" d="M988.67,916.2c-8.62-28.89-5.53-58.53-5.56-88l10.53-1.06a1.8,1.8,0,0,1,1.93.61c.07,13.53.35,27.06.18,40.58-.57,45.29-.69,44.91,42.78,44.77v1.22c-9.58,10-22.18,2.7-33,5.73l-16.24-.38C989.1,918.53,988.88,917.37,988.67,916.2Z"/><path class="bf058e63-72cc-4af7-9df4-9e1aedd92609" d="M988.67,916.2c.21,1.17.43,2.33.64,3.5-10.17,5.13-19.77,4.42-28.74-2.76Z"/><path class="b4d7c242-a220-48ba-b783-1b73a22b2c32" d="M901.9,926a4.31,4.31,0,0,1-.07-3.18,13.06,13.06,0,0,1,1,2.22C902.84,925.24,902.22,925.64,901.9,926Z"/><path class="a441d7d2-33b6-4555-83ad-17f0e678fa01" d="M1918.16,878H1615.37l-.66-27.11,303.91,0Q1918.38,864.48,1918.16,878Z"/><path class="ba5976dd-3511-47ad-9fb8-95635145ad1e" d="M511.75,287.71q0,17.71,0,35.43c0,4-.24,7.66-5.67,7.92-6,.28-7.3-3.1-7.28-8.15.06-17.39-.1-34.77.07-52.15,0-4-1.59-9.39,4.11-11.08,6.12-1.82,10.22,1.44,13.38,6.59,8.09,13.2,16.38,26.28,27.56,38.55,0-11.64,0-23.28,0-34.92,0-4.83-.82-10.53,6.72-10.29s6.05,6.23,6.07,10.83c.09,16.29.13,32.59-.11,48.88-.07,4.44,2.07,10.31-5.25,11.7-6.34,1.21-10-2-13.09-7.15-7.49-12.51-15.37-24.78-23.1-37.15Z"/><path class="ba5976dd-3511-47ad-9fb8-95635145ad1e" d="M367.73,294.79a86.55,86.55,0,0,1,0-9.8c.92-8.38-4.51-20.83,3.45-24.24,10.42-4.47,23.56-3.33,35.08,1.24a18.07,18.07,0,0,1,7.61,5.84c1.79,2.48,4,7.53,2.93,8.75-13.17,15.07,10.16,29.74.09,44.63-5.46,8.07-39.64,14.87-46.93,8.83-2.92-2.42-2.21-5.93-2.24-9.11C367.67,312.22,367.73,303.5,367.73,294.79Zm24.14,26.27c8.1.76,14.6-2.12,14.49-11s-7.21-10.61-15-11.31c-9.24-.84-10.71,3.58-10.9,11.51C380.28,318.83,383.17,322.5,391.87,321.06ZM391,289.59c6.35-1,13.82-1,13.19-10.46-.69-10.13-8.92-9.16-15.7-9.61-9.7-.63-7.46,6.64-7.83,12.27C380.18,289.81,384.92,290.55,391,289.59Z"/><path class="ba5976dd-3511-47ad-9fb8-95635145ad1e" d="M583.64,289.44c15.89-8.6,18.19-31.41,40.82-30-2.94,9.89-9.91,15.35-15.49,21.27-7.42,7.87-7.58,14.18-.71,22.41,6.54,7.84,11.73,16.79,18,25.95-8.44,4.08-13.93,2.55-18.29-4.7-3.08-5.12-6.77-9.88-10.27-14.74-2-2.79-2.73-8-7.87-6-3.71,1.44-5.75,5-6,9.07-.23,3.8-.24,7.62-.14,11.43.12,4.64-1.76,7.14-6.64,7.06-3.92-.06-6.15-1.88-6.16-5.83q-.1-30.21-.07-60.43c0-4.22,2.91-5.32,6.55-5.43,4-.12,6.2,1.69,6.24,5.67C583.71,272.75,583.64,280.36,583.64,289.44Z"/><path class="ba5976dd-3511-47ad-9fb8-95635145ad1e" d="M432.46,331.11c-5.88.08-5.84-2.85-4.13-7.34q11-28.93,21.65-58c1.49-4.07,3.93-6.22,8.36-6.3,4.59-.08,6.55,2.31,8,6.42,6.67,18.39,13.7,36.65,20.49,55,1.2,3.25,4.79,7.48-.43,9.67-4,1.66-7.78.51-10.81-4.27-10.6-16.65-23.82-16.46-35.35.36C438.07,329.86,435.84,331,432.46,331.11Zm25.25-52.91c-3.21,9.12-9.65,16.64-6,25.09,1.25,2.91,11.74,3.09,13.12-.35C468.27,294.34,462.31,286.8,457.71,278.2Z"/><path class="e6bf2840-8254-4f43-8540-c034c449e5fe" d="M17.75,552.38l-.09-5.46c5.18-4.16,3.31-10,3.4-15.21.23-13.06.45-26.13,0-39.18-.39-10.44,3.71-15,14.33-14.55,11.41.46,22.86,0,34.29,0,7.37,16.61,1.9,34.13,3.63,51.13.56,5.44-2.54,12.48,6,14.7q0,4.35,0,8.72Z"/><path class="a81cc3b4-ef3d-4d6f-9f98-eb231118ccfa" d="M69.64,478c-11.43,0-22.88.46-34.29,0-10.62-.42-14.72,4.11-14.33,14.55.49,13.05.27,26.12,0,39.18-.09,5.21,1.78,11-3.4,15.21-.09-19,1-38.07-.62-56.93-1.47-17.21,5.8-20.86,20.47-17.63a32,32,0,0,0,25.63-.05c5.45,1.43,14-5.95,15.93,5.51Z"/><path class="a71266ce-7545-423c-a158-f8f9e8bb0d5a" d="M69.64,478l9.43-.16.21,66c-8.55-2.21-5.45-9.25-6-14.69C71.54,512.11,77,494.59,69.64,478Z"/><path class="a81cc3b4-ef3d-4d6f-9f98-eb231118ccfa" d="M17.75,552.38l61.58.15c.57,4.78-1.57,7-6.38,7q-24.47-.09-48.95,0C19,559.5,17.3,557,17.75,552.38Z"/><path class="a71266ce-7545-423c-a158-f8f9e8bb0d5a" d="M63.14,472.31a32,32,0,0,1-25.63.05Z"/><path class="e6bf2840-8254-4f43-8540-c034c449e5fe" d="M522.08,555.85c5.94-.31,4.78,7.46,9.44,8.67C536,561.61,533,555,538,552.6l1.14,29.9,0,88.64a2.9,2.9,0,0,0-.13,2.8c-.38,1.17-.75,2.35-1.12,3.53-4-5.84-9.76-7-16.28-6Q521.8,613.67,522.08,555.85Z"/><path class="e7ee9621-8d81-4ef5-b996-e7395c5b147b" d="M541.38,578.6c-.22-8.26,2.14-14,12.09-12.3,6.93,1.18,17.93-4.62,17,10a2,2,0,0,0,.25,1.78C561,580.69,551.18,579.66,541.38,578.6Z"/><path class="ba5976dd-3511-47ad-9fb8-95635145ad1e" d="M538.93,673.94a2.9,2.9,0,0,1,.13-2.8,11.45,11.45,0,0,1,.65,2C539.74,673.35,539.2,673.66,538.93,673.94Z"/><path class="f15f3873-cdc7-471d-91c6-705691eb5484" d="M530.88,497.37c3.48.44,8.84-1.28,8.67,4.35-.14,4.34-4.65,5.57-8.72,5.32s-8.2-1.24-7.8-6.15C523.41,496.28,528,498,530.88,497.37Z"/><path class="a81cc3b4-ef3d-4d6f-9f98-eb231118ccfa" d="M481.87,651c-4.78.32-7.8-2.15-9.85-6.18,3.37-11.51,7-23,10-34.57,1-3.83,1.3-7.36,6-8C490.92,619.12,483.91,634.75,481.87,651Z"/><path class="aaf977aa-3b9c-45be-b459-21455b04c95d" d="M1349.3,831.18c-1.41-29.44,3.46-59.1-3.12-88.36,40-.5,80-1.85,119.91.71l-.51,87.53Z"/><path class="f3dc6a57-4571-407b-b636-8d61f09e9329" d="M1349.3,831.18l116.28-.12q-.09,40.71-.16,81.41c-11.41,1.8-23.59-4-34.43,3.48l-82,.23c-1.3-13.27,2.76-26.9-2.62-39.91q-.06-12.84-.13-25.66C1347.18,844.12,1343.75,837,1349.3,831.18Z"/><path class="baa0a6c5-e0ef-43e6-a06b-d7ef1ff56fd1" d="M1431,916c10.84-7.45,23-1.68,34.43-3.48,11.68,2.31,15.09-2.73,15-14.17-.5-47.4-.43-94.81-.07-142.21.08-10.74-3.1-15.58-14.23-12.56-39.95-2.56-79.94-1.21-119.91-.71l-22.79-.26c-4.24-4.87-2.5-10.5-2-16l315.51-.31c5.1,22.45-12.55,14.33-22.41,16.68l-117.75,0c-5.23,2-2.77,6.14-2.57,9.63q.13,40.85.28,81.68c-.25,14.1-.66,28.2-.7,42.3-.11,34.1,0,34.1,32.16,36.75.72,6.81-2,9.78-9.18,9.71-25.46-.26-50.93-.17-76.39-.09C1435.28,922.93,1432,921.05,1431,916Z"/><path class="a441d7d2-33b6-4555-83ad-17f0e678fa01" d="M1346.27,850.61q.07,12.82.13,25.66c-7.08.22-14.15.63-21.22.65q-139.86.29-279.73.48c-.1-3.8,0-7.63-.33-11.42-1.11-12.62,1.32-17.18,17-16.08,34.68,2.44,69.65.83,104.5.82Q1256.42,850.69,1346.27,850.61Z"/><path class="b72b15f3-a6f2-4ec6-acdc-52f37c52ce66" d="M1045.45,877.4q139.86-.23,279.73-.48c7.07,0,14.14-.43,21.22-.65,5.38,13,1.32,26.64,2.62,39.91l-19.84,0c-3.1-23.14-3.1-23.14-25.36-23.14H1088.55c-23.15,0-23.15,0-23.94,23.21l-19.63,0Q1045.22,896.81,1045.45,877.4Z"/><path class="e6bf2840-8254-4f43-8540-c034c449e5fe" d="M1038.53,913.13c-43.47.14-43.35.52-42.78-44.77.17-13.52-.11-27.05-.18-40.58l32.64-1c9.78-.35,14.87,3.19,14,14.14C1040.27,865,1045.61,889.35,1038.53,913.13Z"/><path class="f15f3873-cdc7-471d-91c6-705691eb5484" d="M1280,802.16q2.39,4.5,4.78,9c-7.7,5.46-15.63,0-23.43.15-44.6.7-89.21.41-133.81.25-6.23,0-13.29,2.25-18.15-4.2q.69-1.15,1.32-2.34c4.93-3.08,10.42-3.58,16-3.43l140.91,0Z"/><path class="bf058e63-72cc-4af7-9df4-9e1aedd92609" d="M1110.75,805q-.63,1.18-1.32,2.34c-11.78,7-15.93,3.56-15.34-9.89.75-17.1.1-34.26.06-51.39l.28.26c5,2.86,10.54,3.23,16.16,3Z"/><path class="a9e87986-2162-4234-a4bc-a2384c6287c5" d="M1321.38,726.59c-.49,5.47-2.23,11.1,2,16-6.86,6.78-15.58,2-23.25,3.75V719.69l20.11.2C1320.63,722.13,1321,724.36,1321.38,726.59Z"/><path class="aaf977aa-3b9c-45be-b459-21455b04c95d" d="M1494.44,834.24q-.14-40.83-.28-81.68c3.07-2.62,2.5-6.21,2.57-9.63l117.75,0q.07,3.25.13,6.49-.06,40.84-.13,81.69c-8,1.08-16,3-24,3.09C1558.47,834.55,1526.45,834.29,1494.44,834.24Z"/><path class="f3dc6a57-4571-407b-b636-8d61f09e9329" d="M1494.44,834.24c32,0,64,.31,96,0,8-.08,16-2,24-3.09q.11,9.89.23,19.75l.66,27.12q-.36,19.18-.71,38.37c-23.83,0-47.66,0-71.49.2-6.05,0-11.85-.4-17.27-3.29-32.2-2.65-32.27-2.65-32.16-36.75C1493.78,862.44,1494.19,848.34,1494.44,834.24Z"/><path class="f15f3873-cdc7-471d-91c6-705691eb5484" d="M1683.57,801.92l12.9-.12H1837l12.38.06c1.67,3,3.32,6.06,5,9.09-3.63,4.47-8.75,3.72-13.56,3.72q-74.21.08-148.4,0c-4.83,0-9.93.66-13.53-3.81C1680.46,807.89,1682,804.91,1683.57,801.92Z"/><path class="aee2ae3b-dc55-42ac-836d-680bf01496de" d="M1683.57,801.92c-1.56,3-3.11,6-4.68,8.94-11.28,3.07-16-.73-15.47-12.85.69-16.27,0-32.59-.05-48.89l.25.25,16.52-.24C1683.16,766.61,1683.24,784.27,1683.57,801.92Z"/><path class="aee2ae3b-dc55-42ac-836d-680bf01496de" d="M1854.38,810.94c-1.66-3-3.31-6.06-5-9.09,8.07-17,1.62-35.16,3.88-52.62l16.42.18.25-.16c-.06,17.41-.68,34.85,0,52.24C1870.47,815.31,1864.72,816.27,1854.38,810.94Z"/><path class="a9e87986-2162-4234-a4bc-a2384c6287c5" d="M1614.61,749.45q-.06-3.24-.13-6.49c9.86-2.35,27.51,5.77,22.41-16.68.38-2,.75-4,1.13-6l25.26-.12q.17,14.61.34,29.22l-.25-.25c-9.25-4-18.47-.54-27.72,0C1628.65,749.5,1621.63,749.35,1614.61,749.45Z"/><path class="f1dcb66c-220e-4d59-aa54-862204bf3e87" d="M1675.16,262.15c44.66,0,89.33.25,134-.19,10.24-.1,14.37,2.38,14.29,13.55q-.68,102.92,0,205.83c0,10.16-3.65,12.87-13.37,12.84q-134-.45-268,0c-10,0-13-2.7-12.9-12.79q.62-102.92,0-205.82c-.07-10.68,3-13.84,13.69-13.7C1586.91,262.47,1631,262.14,1675.16,262.15Zm-21.41,29.06c-.08,2.72-.64,5.2-3.22,6.72-3.49.59-6.28,2.16-6.3,6.08q-.17,30.74-.08,61.49c0,4.4,2.22,7.36,6.75,7.39,16.72.13,33.56,1.13,50.12-.52,6.89-.69,2.74-4.66-1.53-5.88l0-78.31c4.52-.64,6.9-3,6.1-7.76-.85-5.05-4.77-5.32-8.69-5.34-12.53-.06-25.08.29-37.6-.2-6.67-.26-13.18,1.43-15,7.18C1642.55,287.58,1651.87,286.61,1653.75,291.21Zm-81.83,10c-8.05,1.26-6.39,7.58-6.44,12.74-.14,14.71.73,29.46-.28,44.09-.88,12.83,4.49,15.94,16.19,15.35a143.53,143.53,0,0,1,30.85,1.29c15.16,2.49,19.17-3.41,17.18-18-2.78-20.4-4-41,1-61.37,2.58-10.53-4.64-20-15.28-20.24-12-.24-24,.06-36-.1-5.31-.07-9.7.93-11.89,6.44-3.17,8,6.39,5.62,7.9,9.79Q1573.56,296.22,1571.92,301.24Zm157.14-9.84c-3.51,21.82-5.2,43.64-.09,65.47-7,.91-6.89,5.92-6,11,1.07,5.93,6.08,5.26,10.31,5.29,13.56.1,27.12,0,40.68.06,10.79.05,14.09-5.44,12.73-15.63-2.9-21.9-3.43-43.71.16-65.79,1.14-7-.43-17.35-13.15-16.84-12.46.51-25,.07-37.42.11C1721.74,275.09,1722.56,282,1729.06,291.4Zm-49.13,101c-8.5-14-19.16-.3-28.86-1.72-7.16-1.06-7.09,7.94-7.09,13.95,0,22.3.27,44.6-.15,66.9-.16,8.66,2.46,12.05,11.62,13.41,39.56,5.87,79.23,1.2,118.81,2.46,8.69.28,10.48-6,10.45-13.34-.08-23.93-.39-47.87.15-71.79.24-10.21-4.11-11.94-13.41-13.2-24.91-3.37-49.57,2.07-74.33.43-3.79-.25-7.69-.31-10.58,2.94Zm-84.15,92h9.79c22,0,21.94,0,22.08-22,.1-16.84-1.06-33.89,1.13-50.47,2.4-18.28-3.25-26.2-21.57-23.58a86.23,86.23,0,0,1-25.81-.24c-9.85-1.52-16.6,1.8-16.14,14.05.66,17.38.17,34.81.17,52.22C1565.43,484.41,1565.43,484.41,1595.78,484.41Z"/><path class="f1dcb66c-220e-4d59-aa54-862204bf3e87" d="M1283.67,262.12c41.94,0,83.88.43,125.81-.23,11.65-.19,16,2.14,15.83,15-.67,67.51-.54,135-.08,202.54.07,10.95-2.25,14.94-14.16,14.87q-128.27-.75-256.53.05c-12.08.08-14.24-4.24-14.18-15.05.4-67.51.53-135-.16-202.53-.13-13,4.54-15.06,16-14.9C1198.7,262.47,1241.19,262.1,1283.67,262.12Zm-110.89,29.47q0,1.43,0,2.85c0,21.17.33,42.36-.17,63.52-.26,11.25,4.24,15.49,15.41,15.4,12.37-.09,24.8-1.49,37.18,2.23,8.93,2.68,13-2.85,13-11.63,0-13.57.56-27.17-.13-40.71-.79-15.5,7.09-35.55-3.61-45.27-10.4-9.44-30.22-1.44-45.75-3.13C1175.16,273.38,1171,279.3,1172.78,291.59ZM1310.09,298c7.93-12.75,4-22.63-9.46-23-11.35-.28-22.71,0-34.06-.09-13.7-.15-17,5-8.73,16.45l0,6.49c-8,1.24-6.42,7.54-6.49,12.73-.15,10.89-.18,21.8,0,32.69.49,34.53-4.64,29.49,29,29.77,33.39.28,33.84.05,32.94-32.18-.37-13.27,3.84-27.06-3.13-39.86A25.71,25.71,0,0,0,1310.09,298Zm29.6-9.87c0,6.3-1.42,12-6.48,16.29a83.46,83.46,0,0,0,0,52.33c2.5,1.53,3,3.95,3,6.61-2.69.53-5.63,1-5.62,4.56,0,4.39,3.4,5.09,6.77,5.11,15.73.07,31.47.4,47.18-.16,8.32-.29,11.42-6.86,9.53-13.81-4-14.52-1.74-29.12-2-43.65-1-47,6.4-39.67-40.57-40.49-11.36-.2-22.7-1.16-28.3,13.21ZM1186.11,389.69c-10.27-7.32-18.06,6.62-17.73,7.31,9.51,19.92,1.39,41.06,5,61.16,5.54,31.16,5.6,31.15,38.16,29.48,26.08-1.34,26.27-2,26.81-28.36.49-24-2.53-48.24,2.39-73.15-17.24,5-34.61,2.95-51.86,3.45A16.54,16.54,0,0,0,1186.11,389.69Zm168.53,98v-.28c6.54,0,13.09-.21,19.61,0,15.08.59,19.28-6.15,18.17-21.08a323,323,0,0,1,.91-60.3c1.32-11.44-1.44-15.71-11.83-16.48-12.44-.93-24.86.66-37.42-1.7-7.53-1.41-14.49,1.82-14.47,12.73.06,23.87,1.75,47.8-2.87,71.57-2.09,10.8,3.32,16.48,14.82,15.56C1345.9,487.36,1350.28,487.65,1354.64,487.65ZM1251.3,436.12c0,13,0,26.06,0,39.09,0,6.79,2.22,12.21,9.87,12.2,13,0,25.93,1.17,38.95-1.08,10.64-1.85,14-6.77,13.61-17.5-.71-18.94-1.58-38.2,1-56.86,2.43-17.53-3.41-26.26-21.57-23.67a84.35,84.35,0,0,1-25.77-.2c-9.84-1.57-16.88,1.53-16.23,13.81C1251.75,413.28,1251.28,424.71,1251.3,436.12Z"/><path class="f15f3873-cdc7-471d-91c6-705691eb5484" d="M1836.87,687.33l-.06,101.13-140.12-.07.06-104.2C1743.35,689.8,1790.17,686,1836.87,687.33Z"/><path class="a9e87986-2162-4234-a4bc-a2384c6287c5" d="M1836.87,687.33c-46.7-1.3-93.52,2.47-140.12-3.14-1.77-9.75,1.88-13.62,12.16-13.51,38.49.42,77,.62,115.48-.07C1838.16,670.36,1837.56,678.17,1836.87,687.33Z"/><path class="a9e87986-2162-4234-a4bc-a2384c6287c5" d="M1696.69,788.39l140.12.07.21,13.33H1696.47Q1696.57,795.1,1696.69,788.39Z"/><path class="a441d7d2-33b6-4555-83ad-17f0e678fa01" d="M1663.62,749.37q-.16-14.61-.34-29.22.21-6.6.44-13.2c20.35-.32,20.06-.37,17,19.84-1.12,7.31-.44,14.89-.58,22.35Z"/><path class="a441d7d2-33b6-4555-83ad-17f0e678fa01" d="M1869.7,749.41l-16.42-.18c-.07-8,1.87-16.7-.6-23.87-6.31-18.3,2.58-20.37,17-18.42q.16,6.59.35,13.16C1864.72,729.82,1865.47,739.6,1869.7,749.41Z"/><path class="f15f3873-cdc7-471d-91c6-705691eb5484" d="M1267.29,684.16q0,50.51.07,101l-140.32.1q0-50.6.08-101.19Z"/><path class="a9e87986-2162-4234-a4bc-a2384c6287c5" d="M1127,785.26l140.32-.1q.17,8.25.35,16.48l-140.91,0Z"/><path class="a9e87986-2162-4234-a4bc-a2384c6287c5" d="M1267.29,684.16l-140.17-.09c-1.5-9.69,2.18-13.55,12.42-13.44q57.75.64,115.53,0C1265.39,670.51,1268.92,674.48,1267.29,684.16Z"/><path class="a441d7d2-33b6-4555-83ad-17f0e678fa01" d="M1110.59,749.32c-5.62.25-11.12-.12-16.16-3q-.32-13.08-.62-26.16.26-8.25.52-16.49c11.93-1.77,18,2,16.55,15.38C1109.83,729.05,1110.62,739.23,1110.59,749.32Z"/><path class="f3dc6a57-4571-407b-b636-8d61f09e9329" d="M1634.74,915.78c-.07-24.44-5.47-22.19,22.2-22.24,73.54-.15,147.09,0,220.63,0,21.47,0,21.47,0,21.43,22.56Z"/><path class="f3dc6a57-4571-407b-b636-8d61f09e9329" d="M1064.61,916.2c.79-23.19.79-23.21,23.94-23.21h215.27c22.26,0,22.26,0,25.36,23.14Z"/><path class="e7ee9621-8d81-4ef5-b996-e7395c5b147b" d="M391.87,321.06c-8.7,1.44-11.59-2.23-11.4-10.83.19-7.93,1.66-12.35,10.9-11.51,7.78.7,14.89,2.3,15,11.31S400,321.82,391.87,321.06Z"/><path class="a71266ce-7545-423c-a158-f8f9e8bb0d5a" d="M391.05,289.59c-6.13,1-10.87.22-10.35-7.8.37-5.63-1.87-12.9,7.83-12.27,6.78.45,15-.52,15.7,9.61C404.86,288.54,397.39,288.54,391.05,289.59Z"/><path class="a71266ce-7545-423c-a158-f8f9e8bb0d5a" d="M457.71,278.2c4.6,8.6,10.56,16.14,7.1,24.74-1.38,3.44-11.87,3.26-13.12.35C448.06,294.84,454.5,287.32,457.71,278.2Z"/><path class="e0cca243-4293-40f8-960c-2377ac542392" d="M1466.09,743.53c11.13-3,14.31,1.82,14.23,12.56-.36,47.4-.43,94.81.07,142.21.12,11.44-3.29,16.48-15,14.17q.07-40.71.16-81.41Z"/><path class="f3dc6a57-4571-407b-b636-8d61f09e9329" d="M1496.73,742.93c-.07,3.42.5,7-2.57,9.63C1494,749.07,1491.5,745,1496.73,742.93Z"/><path class="a37218db-0f27-417b-b2b3-1c6f4f7364d3" d="M1686.54,392.48c2.89-3.25,6.79-3.19,10.58-2.94,24.76,1.64,49.42-3.8,74.33-.43,9.3,1.26,13.65,3,13.41,13.2-.54,23.92-.23,47.86-.15,71.79,0,7.35-1.76,13.62-10.45,13.34-39.58-1.26-79.25,3.41-118.81-2.46-9.16-1.36-11.78-4.75-11.62-13.41.42-22.3.11-44.6.15-66.9,0-6-.07-15,7.09-13.95,9.7,1.42,20.36-12.24,28.86,1.72-3,1.62-8-2.29-9.51,3.41-17.4,9-13.08,25.36-13.35,40.07-.18,9.8.33,19.62-.13,29.4-.43,8.87,2.57,12.81,12,12.7,31-.38,62.11-.47,93.15,0,10.43.17,13.15-4.2,12.79-13.66-.52-13.6-.94-27.29.1-40.82,1-13.8-1.37-24.29-16.73-27.59a4,4,0,0,0,.43-1.54c-.06-.39-.6-1-.94-1Q1722.17,392.92,1686.54,392.48Z"/><path class="e7ee9621-8d81-4ef5-b996-e7395c5b147b" d="M1729,356.87c-5.11-21.83-3.42-43.65.09-65.47,4.22-.87,8.43-1.8,12.66-2.6,32.11-6.12,36.41-2.62,36.4,29.52v13c0,37.84,0,37.83-37.93,35.26-1.62-.11-3.25-.09-4.87-.22C1729.25,365.86,1729.23,361.28,1729,356.87Z"/><path class="e7ee9621-8d81-4ef5-b996-e7395c5b147b" d="M1571.92,301.24q1.63-5,3.29-10c11-3.7,22.5-2.66,33.87-3.22,10.36-.52,13.5,4.52,13.15,13.66-.4,10.3-1,20.61-1.06,30.91-.13,36.87,0,36.62-37.85,34.22-8.38-.53-11.59-3.32-11.43-11.67C1572.22,337.16,1571.94,319.2,1571.92,301.24Z"/><path class="e7ee9621-8d81-4ef5-b996-e7395c5b147b" d="M1699.54,288.18q0,39.15,0,78.31c-12.53,0-25.07-.22-37.59.2-8.48.28-11.62-3.22-11.47-11.57.33-19.06.1-38.13.1-57.19,2.58-1.52,3.14-4,3.22-6.72C1668.76,286.3,1684.24,288.6,1699.54,288.18Z"/><path class="a37218db-0f27-417b-b2b3-1c6f4f7364d3" d="M1571.92,301.24c0,18,.3,35.92,0,53.87-.16,8.35,3,11.14,11.43,11.67,37.82,2.4,37.72,2.65,37.85-34.22,0-10.3.66-20.61,1.06-30.91.35-9.14-2.79-14.18-13.15-13.66-11.37.56-22.82-.48-33.87,3.22-1.51-4.17-11.07-1.8-7.9-9.79,2.19-5.51,6.58-6.51,11.89-6.44,12,.16,24-.14,36,.1,10.64.22,17.86,9.71,15.28,20.24-5,20.41-3.79,41-1,61.37,2,14.61-2,20.51-17.18,18a143.53,143.53,0,0,0-30.85-1.29c-11.7.59-17.07-2.52-16.19-15.35,1-14.63.14-29.38.28-44.09C1565.53,308.82,1563.87,302.5,1571.92,301.24Z"/><path class="a37218db-0f27-417b-b2b3-1c6f4f7364d3" d="M1595.78,484.41c-30.35,0-30.35,0-30.35-30.06,0-17.41.49-34.84-.17-52.22-.46-12.25,6.29-15.57,16.14-14.05a86.23,86.23,0,0,0,25.81.24c18.32-2.62,24,5.3,21.57,23.58-2.19,16.58-1,33.63-1.13,50.47-.14,22-.05,22-22.08,22ZM1572,402.56c0,13.06-.33,26.13,0,39.19,1.06,42.75-8.61,35.22,37.25,36.36,11.44.29,15.77-4.46,15.18-15.54-.88-16.62-4.81-33-.52-50,2.52-10-6-12.87-14.3-13.11-11.43-.34-22.87-.1-34.31-.11Z"/><path class="a37218db-0f27-417b-b2b3-1c6f4f7364d3" d="M1729,356.87c.26,4.41.28,9,6.35,9.51,1.62.13,3.25.11,4.87.22,37.93,2.57,37.93,2.58,37.93-35.26v-13c0-32.14-4.29-35.64-36.4-29.52-4.23.8-8.44,1.73-12.66,2.6-6.5-9.39-7.32-16.31,7.24-16.37,12.47,0,25,.4,37.42-.11,12.72-.51,14.29,9.81,13.15,16.84-3.59,22.08-3.06,43.89-.16,65.79,1.36,10.19-1.94,15.68-12.73,15.63-13.56-.06-27.12,0-40.68-.06-4.23,0-9.24.64-10.31-5.29C1722.08,362.79,1722,357.78,1729,356.87Z"/><path class="a37218db-0f27-417b-b2b3-1c6f4f7364d3" d="M1650.53,297.93c0,19.06.23,38.13-.1,57.19-.15,8.35,3,11.85,11.47,11.57,12.52-.42,25.06-.16,37.59-.2,4.27,1.22,8.42,5.19,1.53,5.88-16.56,1.65-33.4.65-50.12.52-4.53,0-6.75-3-6.75-7.39q0-30.75.08-61.49C1644.25,300.09,1647,298.52,1650.53,297.93Z"/><path class="a37218db-0f27-417b-b2b3-1c6f4f7364d3" d="M1699.54,288.18c-15.3.42-30.78-1.88-45.79,3-1.88-4.6-11.2-3.63-9.43-9.15,1.85-5.75,8.36-7.44,15-7.18,12.52.49,25.07.14,37.6.2,3.92,0,7.84.29,8.69,5.34C1706.44,285.19,1704.06,287.54,1699.54,288.18Z"/><path class="b4c3d8c6-3ff9-409c-b833-fa8a77caa13d" d="M1686.54,392.48q35.63.47,71.24,1c.34,0,.88.62.94,1a4,4,0,0,1-.43,1.54l-13,.34-68.38.07-6.48-.55c1.53-5.7,6.51-1.79,9.51-3.41Z"/><path class="e7ee9621-8d81-4ef5-b996-e7395c5b147b" d="M1186.11,389.69a16.54,16.54,0,0,1,2.73-.11c-.07,6.51,2.52,9.88,9.65,9.9,6.42,0,13.15,2.89,19.18,1.69,13.6-2.7,14.13,4.92,14,14.64-.23,16.26-.45,32.54.08,48.78.31,9.6-2.69,14.36-12.9,13.36-4.84-.48-9.76-.06-14.64-.06-22.9,0-24.42-1.22-24.76-24.93C1179.14,431.65,1177.27,410.08,1186.11,389.69Z"/><path class="e7ee9621-8d81-4ef5-b996-e7395c5b147b" d="M1336.29,363.4c0-2.66-.53-5.08-3-6.61q0-26.16,0-52.33c5.06-4.27,6.49-10,6.48-16.29l35.93-.05c.38,6.42,5,6.54,9.74,6.61,0,19.51.15,39,0,58.55,0,5.08,1.62,12.81-6.1,12.77C1364.94,366,1350.21,370.23,1336.29,363.4Z"/><path class="e7ee9621-8d81-4ef5-b996-e7395c5b147b" d="M1257.81,297.93l0-6.49c4.67-1,9.51-3.28,14-2.72,13,1.61,29.17-8.5,38.25,9.32a25.86,25.86,0,0,1,0,3c-6.28,9.5-2.75,20.11-3,30.15-1,39.38,6.47,35.12-37.86,35.45-8.41.06-11.68-3.1-11.53-11.53C1258.06,336.09,1257.82,317,1257.81,297.93Z"/><path class="a37218db-0f27-417b-b2b3-1c6f4f7364d3" d="M1172.78,291.59c-1.78-12.29,2.38-18.21,15.9-16.74,15.53,1.69,35.35-6.31,45.75,3.13,10.7,9.72,2.82,29.77,3.61,45.27.69,13.54.11,27.14.13,40.71,0,8.78-4,14.31-13,11.63-12.38-3.72-24.81-2.32-37.18-2.23-11.17.09-15.67-4.15-15.41-15.4.5-21.16.16-42.35.17-63.52.39-.26,1.15-.67,1.12-.77A17.4,17.4,0,0,0,1172.78,291.59Zm58.83,35.3c0-42.42,0-42.22-39.68-38.91-8.93.75-12.71,4.42-12.62,13.18.17,17.42.2,34.86,0,52.28-.1,8.72,3.41,13.22,12.49,13.18,48-.2,39,4.5,39.8-36.47C1231.62,329.06,1231.61,328,1231.61,326.89Z"/><path class="a37218db-0f27-417b-b2b3-1c6f4f7364d3" d="M1186.11,389.69c-8.84,20.39-7,42-6.66,63.27.34,23.71,1.86,24.92,24.76,24.93,4.88,0,9.8-.42,14.64.06,10.21,1,13.21-3.76,12.9-13.36-.53-16.24-.31-32.52-.08-48.78.13-9.72-.4-17.34-14-14.64-6,1.2-12.76-1.67-19.18-1.69-7.13,0-9.72-3.39-9.65-9.9,17.25-.5,34.62,1.54,51.86-3.45-4.92,24.91-1.9,49.1-2.39,73.15-.54,26.37-.73,27-26.81,28.36-32.56,1.67-32.62,1.68-38.16-29.48-3.57-20.1,4.55-41.24-5-61.16C1168.05,396.31,1175.84,382.37,1186.11,389.69Z"/><path class="a37218db-0f27-417b-b2b3-1c6f4f7364d3" d="M1354.64,487.65c-4.36,0-8.74-.29-13.08.06-11.5.92-16.91-4.76-14.82-15.56,4.62-23.77,2.93-47.7,2.87-71.57,0-10.91,6.94-14.14,14.47-12.73,12.56,2.36,25,.77,37.42,1.7,10.39.77,13.15,5,11.83,16.48a323,323,0,0,0-.91,60.3c1.11,14.93-3.09,21.67-18.17,21.08-6.52-.25-13.07,0-19.61,0Zm-18.26-85q0,20.36-.08,40.71c0,38.48,0,38.27,38.79,34.69,7.63-.71,10.52-3.5,10.4-10.94-.25-15.74-1.09-31.57.22-47.2,1.43-17.08-5.65-22.48-21.63-20.68-8,.91-16.27.17-24.41.17Z"/><path class="a37218db-0f27-417b-b2b3-1c6f4f7364d3" d="M1251.29,436.12c0-11.41.46-22.84-.14-34.21-.65-12.28,6.39-15.38,16.23-13.81a84.35,84.35,0,0,0,25.77.2c18.16-2.59,24,6.14,21.57,23.67-2.58,18.66-1.71,37.92-1,56.86.41,10.73-3,15.65-13.61,17.5-13,2.25-26,1.05-38.95,1.08-7.65,0-9.89-5.41-9.87-12.2Q1251.34,455.67,1251.29,436.12Zm9.84-36.75-3.28,3.27q0,20.36,0,40.72c0,38.48,0,38.27,38.78,34.66,7.67-.71,10.46-3.57,10.36-11-.22-16.83-.72-33.69.2-50.47.76-14-5.32-18.38-18.34-17.35C1279.64,399.94,1270.36,399.37,1261.13,399.37Z"/><path class="a37218db-0f27-417b-b2b3-1c6f4f7364d3" d="M1336.29,363.4c13.92,6.83,28.65,2.56,43,2.65,7.72,0,6.06-7.69,6.1-12.77.15-19.52,0-39,0-58.55-.2-6.69-4.95-6.68-9.74-6.61l-35.93.05h-16.45c5.6-14.37,16.94-13.41,28.3-13.21,47,.82,39.59-6.48,40.57,40.49.3,14.53-1.92,29.13,2,43.65,1.89,6.95-1.21,13.52-9.53,13.81-15.71.56-31.45.23-47.18.16-3.37,0-6.75-.72-6.77-5.11C1330.66,364.42,1333.6,363.93,1336.29,363.4Z"/><path class="a37218db-0f27-417b-b2b3-1c6f4f7364d3" d="M1257.81,297.93c0,19.08.25,38.16-.09,57.23-.15,8.43,3.12,11.59,11.53,11.53,44.33-.33,36.89,3.93,37.86-35.45.25-10-3.28-20.65,3-30.15,7,12.79,2.76,26.58,3.13,39.85.9,32.23.45,32.46-32.94,32.18-33.65-.28-28.52,4.76-29-29.77-.15-10.89-.12-21.8,0-32.69C1251.39,305.47,1249.79,299.17,1257.81,297.93Z"/><path class="a37218db-0f27-417b-b2b3-1c6f4f7364d3" d="M1310.09,298c-9.08-17.82-25.21-7.71-38.25-9.32-4.49-.56-9.33,1.73-14,2.72-8.27-11.41-5-16.6,8.73-16.45,11.35.13,22.71-.19,34.06.09C1314,275.41,1318,285.29,1310.09,298Z"/><path class="a37218db-0f27-417b-b2b3-1c6f4f7364d3" d="M1333.21,304.46q0,26.18,0,52.33A83.46,83.46,0,0,1,1333.21,304.46Z"/><path class="e7ee9621-8d81-4ef5-b996-e7395c5b147b" d="M1172.78,291.59a17.4,17.4,0,0,1,1.12,2.08c0,.1-.73.51-1.12.77Q1172.81,293,1172.78,291.59Z"/><path class="e7ee9621-8d81-4ef5-b996-e7395c5b147b" d="M1670.42,395.85l6.47.55a159.34,159.34,0,0,0,68.39-.07l13-.34c15.36,3.3,17.78,13.79,16.73,27.59-1,13.53-.62,27.22-.1,40.82.36,9.46-2.36,13.83-12.79,13.66-31-.51-62.1-.42-93.15,0-9.47.11-12.47-3.83-12-12.7.46-9.78,0-19.6.13-29.4C1657.34,421.21,1653,404.89,1670.42,395.85Z"/><path class="e7ee9621-8d81-4ef5-b996-e7395c5b147b" d="M1575.25,399.34c11.44,0,22.88-.23,34.31.11,8.32.24,16.82,3.15,14.3,13.11-4.29,17-.36,33.39.52,50,.59,11.08-3.74,15.83-15.18,15.54C1563.34,477,1573,484.5,1572,441.75c-.33-13.06,0-26.13,0-39.19Z"/><path class="f1dcb66c-220e-4d59-aa54-862204bf3e87" d="M1575.25,399.34l-3.3,3.22Z"/><path class="a37218db-0f27-417b-b2b3-1c6f4f7364d3" d="M1745.28,396.33a159.34,159.34,0,0,1-68.39.07Z"/><path class="f1dcb66c-220e-4d59-aa54-862204bf3e87" d="M1375.62,288.12c4.79-.07,9.54-.08,9.74,6.61C1380.66,294.66,1376,294.54,1375.62,288.12Z"/><path class="e7ee9621-8d81-4ef5-b996-e7395c5b147b" d="M1231.61,326.89c0,1.08,0,2.17,0,3.26-.79,41,8.17,36.27-39.8,36.47-9.08,0-12.59-4.46-12.49-13.18.2-17.42.17-34.86,0-52.28-.09-8.76,3.69-12.43,12.62-13.18C1231.62,284.67,1231.61,284.47,1231.61,326.89Z"/><path class="e7ee9621-8d81-4ef5-b996-e7395c5b147b" d="M1339.67,399.37c8.14,0,16.37.74,24.41-.17,16-1.8,23.06,3.6,21.63,20.68-1.31,15.63-.47,31.46-.22,47.2.12,7.44-2.77,10.23-10.4,10.94-38.81,3.58-38.8,3.79-38.79-34.69q0-20.35.08-40.71Z"/><path class="f1dcb66c-220e-4d59-aa54-862204bf3e87" d="M1339.67,399.37l-3.29,3.25Z"/><path class="e7ee9621-8d81-4ef5-b996-e7395c5b147b" d="M1261.13,399.37c9.23,0,18.51.57,27.69-.15,13-1,19.1,3.32,18.34,17.35-.92,16.78-.42,33.64-.2,50.47.1,7.41-2.69,10.27-10.36,11-38.81,3.61-38.79,3.82-38.78-34.66q0-20.36,0-40.72Z"/><path class="f1dcb66c-220e-4d59-aa54-862204bf3e87" d="M1261.13,399.37l-3.28,3.27Z"/></svg>